<svg xmlns="http://www.w3.org/2000/svg" height="24" viewBox="0 96 960 960" width="24"><path d="M224.615 896Q197 896 178.5 877.5 160 859 160 831.385V402.154q0-10.385 2.307-18.924 2.308-8.538 8-15.692l49.847-58.769q6.461-7.154 15.769-9.962Q245.231 296 255.385 296h449.23q10.154 0 19.462 2.038t15.769 10.731l48.308 58.769q6.462 7.154 9.154 15.692Q800 391.769 800 402.154v429.231Q800 859 781.5 877.5 763 896 735.385 896h-510.77ZM216 376h528l-34-40H250l-34 40Zm-16 40v415.385q0 9.23 7.692 16.923Q215.385 856 224.615 856h510.77q9.23 0 16.923-7.692Q760 840.615 760 831.385V416H200Zm280 367.693 132.308-132.308L584 623.077l-84 84v-188h-40v188l-84-84-28.308 28.308L480 783.693ZM200 856h560-560Z"/></svg>