<svg xmlns="http://www.w3.org/2000/svg" height="24" viewBox="0 96 960 960" width="24"><path d="M212.309 915.999q-30.308 0-51.308-21t-21-51.308V379.079q0-12.693 3.654-22.962t10.5-19.346l52.923-63.384q7.231-9.077 17.884-13.23 10.654-4.154 22.731-4.154h464.614q12.077 0 22.731 3.769 10.653 3.769 17.884 13.615l52.154 63.384q7.23 9.077 11.076 19.346 3.847 10.269 3.847 22.962v464.612q0 30.308-21 51.308t-51.308 21H212.309ZM216 356.001h528l-34-40H250l-34 40ZM200 416v427.691q0 4.616 3.846 8.463 3.847 3.846 8.463 3.846h535.382q4.616 0 8.463-3.846 3.846-3.847 3.846-8.463V416H200Zm280 383.845 146.153-146.153L584 611.539l-74.001 74.001V507.539h-59.998V685.54L376 611.539l-42.153 42.153L480 799.845ZM200 856h560H200Z"/></svg>