<svg xmlns="http://www.w3.org/2000/svg" height="24" viewBox="0 96 960 960" width="24"><path d="M480 718.845 623.037 576 480 432.963 441.155 472l75.924 75.924H332.116v55.96h184.963L441.155 680 480 718.845Zm.092 229.077q-77.152 0-145.066-29.325-67.914-29.324-118.152-79.595-50.238-50.27-79.517-118.055-29.279-67.785-29.279-144.855 0-77.152 29.325-145.066 29.324-67.914 79.595-118.152 50.27-50.238 118.055-79.517 67.785-29.279 144.855-29.279 77.152 0 145.066 29.325 67.914 29.324 118.152 79.595 50.238 50.27 79.517 118.055 29.279 67.785 29.279 144.855 0 77.152-29.325 145.066-29.324 67.914-79.595 118.152-50.27 50.238-118.055 79.517-67.785 29.279-144.855 29.279Zm-.105-55.96q131.898 0 223.936-92.026 92.039-92.026 92.039-223.923 0-131.898-92.026-223.936-92.026-92.039-223.923-92.039-131.898 0-223.936 92.026-92.039 92.026-92.039 223.923 0 131.898 92.026 223.936 92.026 92.039 223.923 92.039ZM480 576Z"/></svg>