<svg xmlns="http://www.w3.org/2000/svg" height="24" viewBox="0 96 960 960" width="24"><path d="M120 494.461V339.077q0-27.616 18.5-46.116t46.115-18.5h590.77q27.615 0 46.115 18.5 18.5 18.5 18.5 46.116v155.384h-40V339.077q0-9.231-7.692-16.923-7.693-7.693-16.923-7.693h-590.77q-9.23 0-16.923 7.693Q160 329.846 160 339.077v155.384h-40Zm64.615 300.001q-27.615 0-46.115-18.5-18.5-18.5-18.5-46.116V534.462h40v195.384q0 9.231 7.692 16.923 7.693 7.692 16.923 7.692h590.77q9.23 0 16.923-7.692Q800 739.077 800 729.846V534.462h40v195.384q0 27.616-18.5 46.116t-46.115 18.5h-590.77Zm-113.846 80v-40h818.462v40H70.769ZM480 534.461Zm-360 .001v-40.001h200q5.615 0 10.615 2.923t7.693 8.308L403 634.846l139.154-249.615q2.692-5.154 7.461-7.193Q554.385 376 560 376t10.615 2.038q5 2.039 7.693 7.654l54.384 108.769H840v40.001H627.692q-8.692 0-16.769-4.731-8.077-4.731-12.308-13.423L558 435.616 418.077 683.692q-2.692 5.385-7.692 8.077-5 2.693-10.616 2.693-5.615 0-10.5-2.924-4.884-2.923-7.577-8.307l-74.384-148.769H120Z"/></svg>