<svg xmlns="http://www.w3.org/2000/svg" height="24" viewBox="0 -960 960 960" width="24"><path d="M212.309-200h535.382q5.385 0 8.847-3.462 3.462-3.462 3.462-8.847v-358.922L571.231-760H212.309q-5.385 0-8.847 3.462-3.462 3.462-3.462 8.847v535.382q0 5.385 3.462 8.847 3.462 3.462 8.847 3.462Zm0 59.999q-29.923 0-51.115-21.193-21.193-21.192-21.193-51.115v-535.382q0-29.923 21.193-51.115 21.192-21.193 51.115-21.193h383.46l224.23 224.23v383.46q0 29.923-21.193 51.115-21.192 21.193-51.115 21.193H212.309Zm77.692-160h379.998V-360H290.001v59.999Zm0-150h379.998v-59.998H290.001v59.998Zm0-149.999h254.613v-59.999H290.001V-600ZM200-200V-760v560Z"/></svg>