<svg xmlns="http://www.w3.org/2000/svg" height="24" viewBox="0 -960 960 960" width="24"><path d="M215.539-203.231h528.922q5.385 0 8.846-3.462 3.462-3.461 3.462-8.846v-364.577L580.116-756.769H215.539q-5.385 0-8.846 3.462-3.462 3.461-3.462 8.846v528.922q0 5.385 3.462 8.846 3.461 3.462 8.846 3.462Zm0 55.96q-28.257 0-48.263-20.005-20.005-20.006-20.005-48.263v-528.922q0-28.257 20.005-48.263 20.006-20.005 48.263-20.005h387.499l209.691 209.691v387.499q0 28.257-20.005 48.263-20.006 20.005-48.263 20.005H215.539Zm78.5-158.384h371.922v-55.96H294.039v55.96Zm0-146.461h371.922v-55.96H294.039v55.96Zm0-146.269h244.614v-55.96H294.039v55.96Zm-90.808 395.154v-553.538 553.538Z"/></svg>