<svg xmlns="http://www.w3.org/2000/svg" height="24" viewBox="0 96 960 960" width="24"><path d="M217.962 908.729q-29.807 0-50.249-20.038-20.442-20.038-20.442-49.846V385.471q0-12.355 3.249-22.354 3.25-10 10.096-18.269l52.116-61.769q7.047-8.269 17.426-12.019 10.379-3.75 21.573-3.75h456.538q11.194 0 21.573 3.366 10.379 3.365 17.426 12.403l51.346 61.769q7.231 8.269 10.673 18.269 3.442 9.999 3.442 22.354v453.374q0 29.808-20.442 49.846-20.442 20.038-50.249 20.038H217.962Zm1.269-546.266h521.538l-33.192-39.192H252.423l-33.192 39.192Zm-16 55.96v422.038q0 4.615 3.846 8.462 3.847 3.846 8.462 3.846h528.922q4.615 0 8.462-3.846 3.846-3.847 3.846-8.462V418.423H203.231ZM452.116 787.73h55.96V610.037l74.809 74.808 39.229-39.23L480 503.501 337.886 645.615l39.422 39.23 74.808-74.808V787.73Zm-248.885 65.039h553.538-553.538Z"/></svg>