<svg xmlns="http://www.w3.org/2000/svg" height="24" viewBox="0 -960 960 960" width="24"><path d="M480-100.001q-60.23 0-117.884-19.154-57.653-19.154-107.5-55.461L298-218q42 29 88 43.5t94 14.5q133.385 0 226.692-93.308Q800-346.615 800-480t-93.308-226.692Q613.385-800 480-800t-226.692 93.308Q160-613.385 160-480h-59.999q0-78.769 29.962-148.115 29.961-69.346 81.269-120.653 51.307-51.308 120.653-81.269Q401.231-859.999 480-859.999t147.807 29.962q69.038 29.961 120.654 81.576 51.615 51.616 81.576 120.654Q859.999-558.769 859.999-480q0 78.154-29.962 147.499-29.961 69.346-81.576 120.962-51.616 51.615-120.654 81.576Q558.769-100.001 480-100.001ZM167.078-266.463l154.153-154.153 120 100 205.693-205.693v119.385h58.46v-218.46h-218.46v58.46h119.385l-167.54 167.54-120-100-182.152 182.153q7.923 16.461 13.922 26.922 6 10.461 16.539 23.846ZM480-480Z"/></svg>