<svg version="1.1" id="Layer_1" xmlns="http://www.w3.org/2000/svg" xmlns:xlink="http://www.w3.org/1999/xlink" x="0px" y="0px"
	 width="100%" viewBox="0 0 1024 1024" enable-background="new 0 0 1024 1024" xml:space="preserve">
<path fill="#000000" opacity="1.000000" stroke="none" 
	d="
M256.533447,688.398621 
	C239.735840,659.221436 227.974731,628.569153 223.096146,595.538330 
	C219.603455,571.890747 218.679306,548.168091 223.378571,524.498352 
	C224.517212,518.763184 223.780228,518.162598 217.928528,519.036682 
	C206.838593,520.693115 195.893127,520.551758 185.831863,514.898743 
	C169.626373,505.793549 162.994049,490.765167 163.001801,473.187775 
	C163.010590,453.309021 167.225906,433.855621 173.214432,414.904968 
	C182.700775,384.885529 195.790222,356.530060 213.316879,330.303833 
	C214.784439,328.107849 216.456573,326.048523 218.159317,323.756531 
	C214.649200,319.382599 215.056046,314.333710 216.351212,309.497406 
	C220.907593,292.483276 227.444641,276.336700 238.509491,262.369812 
	C239.743500,260.812134 240.618591,259.579224 239.533234,257.511993 
	C238.407486,255.367920 239.369232,253.684525 241.749405,253.791443 
	C245.112839,253.942535 246.256546,251.681992 247.793732,249.452393 
	C255.639450,238.072830 263.369263,226.603043 271.570709,215.482742 
	C276.938477,208.204544 280.712250,208.055466 287.847504,213.544785 
	C294.741364,218.848389 302.457367,222.850677 309.908081,227.250153 
	C316.819702,231.331314 323.091125,236.295273 329.724274,240.752762 
	C331.963135,242.257294 332.885620,243.856323 330.585663,246.396866 
	C319.006409,259.187317 310.376312,274.048859 301.404114,288.649200 
	C297.045715,295.741547 293.152832,303.118652 288.862915,310.254852 
	C285.204742,316.340088 283.242065,316.503052 278.818726,310.927917 
	C276.798767,308.381958 274.778748,308.588043 272.260132,309.525360 
	C263.211273,312.893036 254.543579,317.257965 245.204193,319.864868 
	C243.760956,320.267731 242.318848,321.078156 240.887512,321.053101 
	C232.933258,320.914001 228.438995,325.385620 224.642899,331.822693 
	C207.154373,361.478180 191.678482,392.048187 182.772507,425.470428 
	C179.307602,438.473572 176.746979,451.768707 176.971085,465.406891 
	C177.056549,470.608612 177.821640,475.627899 178.993286,480.699707 
	C183.933517,502.084381 208.335754,509.501831 226.240189,500.223450 
	C229.024902,498.780365 229.098175,496.242249 229.396286,493.866730 
	C232.076889,472.506378 239.848373,452.891296 250.533920,434.474731 
	C275.647919,391.190674 308.305481,354.706940 349.945923,326.634827 
	C378.262726,307.544830 407.844513,291.018066 441.625214,283.490540 
	C464.121124,278.477692 486.860321,275.331085 509.945831,275.790558 
	C553.244446,276.652344 595.027283,284.420166 633.886841,304.453339 
	C649.902527,312.709961 665.128113,322.285339 679.221741,333.586151 
	C681.655334,335.537476 684.273193,337.258850 687.236633,339.397217 
	C690.130493,329.728851 691.429443,320.395844 692.625488,311.062805 
	C694.843628,293.755066 696.804138,276.414246 699.039062,259.108765 
	C705.596008,208.337433 718.339478,158.817307 729.561951,108.991760 
	C731.905334,98.587440 736.664429,95.336296 746.818115,98.080437 
	C792.032288,110.300026 838.141846,118.372704 883.910095,128.024765 
	C889.607666,129.226318 895.305969,130.424728 900.995056,131.665421 
	C905.994141,132.755646 907.864624,135.855484 906.467468,140.856369 
	C905.536133,144.190109 903.825317,147.327393 903.925903,150.913589 
	C905.552429,152.504623 907.623291,152.428436 909.560547,152.741684 
	C921.631958,154.693680 927.327698,162.086182 924.544983,173.991104 
	C921.783997,185.803284 917.869629,197.349197 914.373962,208.985718 
	C902.965881,246.961823 894.576355,285.669312 886.360107,324.418396 
	C884.668457,332.396576 883.323120,333.784851 875.310364,333.028656 
	C871.555481,332.674286 870.940002,334.360718 870.175476,337.293610 
	C865.177246,356.468414 863.006775,376.247955 858.241394,395.390411 
	C855.409119,406.767914 855.575378,416.563019 859.452026,427.566956 
	C868.200806,452.400726 874.314331,478.040070 876.937439,504.294098 
	C879.137146,526.310120 880.516541,548.451294 875.339294,570.322754 
	C866.057251,609.534851 829.279846,631.565308 792.050415,626.607544 
	C787.537659,626.006714 785.258606,626.792908 783.728699,631.588928 
	C771.227539,670.776367 752.178528,706.400024 724.851807,737.345215 
	C714.449463,749.124939 702.490417,759.192017 689.920837,768.621155 
	C661.419861,790.001160 629.901489,804.928162 595.424316,813.728210 
	C594.324097,814.009033 593.281616,814.516174 591.634399,815.134827 
	C595.089294,823.941101 598.229248,832.652832 600.799927,841.557983 
	C605.518250,857.902588 611.611389,873.741760 618.602234,889.254822 
	C622.401001,897.684448 627.430237,905.293823 633.076843,912.532349 
	C640.288879,921.777710 650.337402,921.311890 660.475952,920.270996 
	C663.618835,919.948364 666.717896,919.153320 669.863098,918.908203 
	C675.297913,918.484558 679.423096,921.029175 680.550903,925.190369 
	C681.603271,929.073486 679.221985,932.975403 674.342468,935.363647 
	C658.130127,943.298401 633.736877,937.661865 622.443604,923.557556 
	C611.525940,909.922363 605.595398,893.773071 599.069031,877.919556 
	C591.822083,860.315796 588.361267,841.515259 582.075745,823.589905 
	C580.281372,818.472961 578.237366,817.204895 572.823914,818.225708 
	C542.501648,823.943420 511.921265,823.739441 481.263000,821.555969 
	C465.304138,820.419434 449.404572,819.112793 433.798828,815.352356 
	C430.595093,814.580322 427.657959,812.784668 423.949432,812.774658 
	C421.648712,818.431946 422.373138,824.533386 421.356689,830.347961 
	C417.721344,851.143799 416.938660,872.414673 411.332092,892.869751 
	C408.187378,904.342896 403.813843,915.396912 394.959076,923.883362 
	C382.866150,935.473511 368.059906,937.464844 352.238892,935.382141 
	C350.053406,935.094421 348.147614,933.943726 346.504120,932.494934 
	C343.547363,929.888306 343.080139,926.474426 343.868347,922.877258 
	C344.596069,919.556091 347.394714,918.802307 350.269684,918.182190 
	C352.433685,917.715393 354.575043,917.654114 356.714172,918.096558 
	C361.008453,918.984924 365.387756,919.047546 369.659973,918.565918 
	C378.553864,917.563171 385.725800,913.873962 389.893768,905.222839 
	C395.036469,894.548401 396.957458,883.090576 399.225922,871.655884 
	C403.165985,851.795532 404.434784,831.408569 411.536560,811.864258 
	C344.631195,789.577148 293.052856,748.676270 256.533447,688.398621 
M234.883926,535.198914 
	C233.454437,551.381592 234.650024,567.412415 237.222473,583.424561 
	C242.635666,617.119080 252.737793,649.206299 270.319855,678.581116 
	C288.460175,708.888672 310.768829,735.592712 339.844635,756.206238 
	C360.039368,770.523438 381.121735,783.267273 404.662018,791.225586 
	C432.378571,800.595764 461.065033,805.320374 490.176514,807.864746 
	C519.603882,810.436707 548.736694,808.635071 577.510010,802.249695 
	C605.886658,795.952393 633.362610,787.089661 659.027466,772.945435 
	C686.317993,757.904968 710.585388,739.312134 730.545593,715.293640 
	C751.900757,689.596375 767.400940,660.733582 777.163086,628.775818 
	C777.827942,626.599243 777.572571,625.431885 775.600830,623.794128 
	C771.957092,620.767517 773.502930,614.806824 778.042480,613.809448 
	C781.215881,613.112183 782.417297,611.477661 782.822510,608.415710 
	C783.651367,602.151672 784.425537,595.838928 785.928772,589.719849 
	C786.957520,585.532471 785.688232,580.975342 788.179321,577.051086 
	C790.813232,589.135559 789.402405,601.178284 787.278137,613.807434 
	C790.408569,613.807434 792.539673,613.902832 794.659912,613.791443 
	C805.883606,613.201782 816.879395,611.314026 827.226990,606.820251 
	C847.163025,598.162231 860.629700,583.712646 864.546692,561.944702 
	C869.418579,534.869263 867.282410,507.870605 862.177429,480.996765 
	C858.591431,462.119568 851.756104,444.166473 846.859619,425.666321 
	C846.466187,424.179840 845.826965,423.145660 844.248169,423.202637 
	C840.224792,423.347717 837.446533,420.825378 834.413818,418.808899 
	C824.866577,412.460785 815.310974,406.125305 805.831116,399.833069 
	C799.795227,405.430939 799.856018,405.395996 795.960022,398.288025 
	C790.757446,388.796448 785.545166,379.307220 780.130066,369.936584 
	C778.020264,366.285583 775.291870,362.967499 779.527649,358.392761 
	C763.434937,356.452209 748.576111,351.979675 733.073914,351.470642 
	C737.241882,352.524292 741.464050,353.293732 745.695496,354.008087 
	C748.492310,354.480225 750.534851,355.652161 749.973206,358.908173 
	C749.417847,362.127869 747.080750,362.683533 744.309631,362.198303 
	C734.312073,360.447601 724.255737,359.043671 714.639099,355.492188 
	C705.097778,351.968506 698.745972,346.133698 698.668030,334.934662 
	C697.621094,336.904633 697.089050,338.816071 695.865967,340.033173 
	C692.448669,343.433990 693.723022,346.058838 696.634766,348.836456 
	C702.540894,354.470642 708.327271,360.230194 714.210266,365.888977 
	C736.944641,387.756897 753.220825,413.874573 764.333801,443.205231 
	C773.057922,466.230896 777.674438,490.200317 779.657410,514.762024 
	C782.816650,553.892822 774.992371,590.680115 756.645996,625.215332 
	C745.632690,645.946777 731.783203,664.548828 714.147339,680.326599 
	C698.414307,694.402039 681.127563,704.872009 659.846375,707.861694 
	C643.267822,710.190674 628.461487,703.831238 621.785767,690.995544 
	C616.466003,680.766907 615.317871,669.755554 616.242920,658.439941 
	C617.632935,641.435852 622.027771,625.018433 626.231628,608.582520 
	C632.347534,584.671204 637.881531,560.663208 637.797302,535.803589 
	C637.690796,504.382935 626.867493,475.388306 616.797852,446.293091 
	C608.464783,422.215942 598.972534,398.567444 589.500916,374.913422 
	C581.392334,354.663361 574.136230,334.069183 564.705200,314.359863 
	C563.750732,312.365173 562.934509,310.712677 560.288391,310.231903 
	C532.838501,305.244049 505.352539,301.684723 477.439728,306.320740 
	C468.563416,307.794983 459.249512,308.396576 451.753113,313.661377 
	C444.433105,318.802307 437.502991,324.730347 431.600952,331.531616 
	C410.579132,355.756378 391.393951,381.248779 377.743347,410.537689 
	C359.093201,450.553741 354.584412,492.643677 359.916138,535.934631 
	C363.336060,563.703308 371.897980,590.174133 383.689514,615.535217 
	C387.126648,622.927917 391.235138,630.009766 394.059723,637.692261 
	C397.066589,645.870483 399.589783,654.252258 398.852081,663.022888 
	C397.648895,677.327454 386.335144,689.207947 370.831299,693.225098 
	C354.829224,697.371338 344.235260,691.554688 340.064972,675.658447 
	C336.686462,662.780151 333.876678,649.746094 331.116058,636.717224 
	C330.439972,633.526367 329.485626,630.014709 331.282166,626.528870 
	C333.498901,627.441772 334.037201,629.282532 334.730682,630.909790 
	C336.950775,636.119385 339.119629,641.351807 341.231964,646.606140 
	C344.896179,655.720825 347.046844,665.368286 351.076416,674.367310 
	C352.869843,678.372437 355.624420,681.515259 359.934021,681.406250 
	C370.071259,681.149780 379.282867,678.043396 385.862823,669.744385 
	C388.801056,666.038452 389.516266,661.522095 388.550049,656.915649 
	C386.907471,649.084900 384.947418,641.333496 381.308350,634.129211 
	C367.851166,607.487732 358.445007,579.480652 353.118774,550.118347 
	C349.782898,531.728333 347.810760,513.257202 349.492249,494.502869 
	C349.857697,490.426971 350.637390,486.310181 350.410339,482.155914 
	C349.777710,483.068268 349.551880,484.021667 349.289886,484.964966 
	C346.445190,495.207794 342.308502,504.843414 334.529175,512.328613 
	C328.238464,518.381470 320.530334,519.770630 312.251312,517.125916 
	C304.721924,514.720764 301.995209,508.553223 300.898315,501.463318 
	C300.289490,497.527832 299.801025,493.503052 299.920746,489.538483 
	C300.317688,476.393250 300.973053,463.255035 301.605896,450.117828 
	C303.129120,418.496582 314.237457,390.408447 333.225250,365.319794 
	C340.319977,355.945557 347.770416,346.840515 355.569336,336.966156 
	C348.952545,341.567261 342.906921,345.590210 337.053101,349.875122 
	C318.479187,363.470856 303.058685,380.267273 288.783630,398.151764 
	C269.222961,422.658386 252.525284,448.743805 243.770325,479.323120 
	C241.673889,486.645569 242.382324,494.249634 240.416809,501.394135 
	C237.444031,512.199951 234.887360,522.987427 234.883926,535.198914 
M694.226807,648.260620 
	C688.907471,646.313232 684.737915,648.965759 680.981995,652.027710 
	C674.522461,657.293762 670.832520,664.147583 670.947449,672.709961 
	C664.912354,671.606689 663.687134,670.292786 664.757568,665.284790 
	C666.809082,655.686462 671.825195,648.056702 680.691284,643.430237 
	C690.917297,638.094116 700.941223,640.944763 706.923523,650.803406 
	C708.350464,653.154968 709.396545,655.737671 710.937988,658.863281 
	C711.642029,656.365906 712.299133,654.502136 712.688232,652.584045 
	C717.881226,626.987000 723.032349,601.419006 724.250183,575.185669 
	C725.788452,542.046631 723.830688,509.206726 716.145264,476.943146 
	C708.961670,446.786285 694.878418,419.528076 677.806946,393.882690 
	C671.194153,383.948730 663.740662,374.431152 654.187134,366.927490 
	C652.377808,365.506409 649.732849,364.472534 652.181091,361.557983 
	C654.319763,359.012054 656.614502,359.705566 658.693909,361.587982 
	C661.407898,364.044830 664.054138,366.585663 666.608459,369.208405 
	C689.577026,392.792542 705.091553,420.899078 716.407227,451.531982 
	C728.714172,484.848358 731.124512,519.744507 732.029358,554.729004 
	C732.868958,587.184875 728.301636,619.150574 720.499146,650.654602 
	C719.902771,653.062500 718.846375,655.501221 719.275574,658.277588 
	C719.909241,658.033936 720.114624,658.020020 720.204285,657.911011 
	C722.424133,655.212830 724.651062,652.520020 726.838562,649.795654 
	C752.573547,617.744324 765.733337,580.973206 766.431763,540.066895 
	C766.845581,515.822083 762.587280,492.050873 755.586975,468.737396 
	C740.608093,418.852295 712.414551,378.371338 670.666382,347.234436 
	C650.937927,332.520386 629.869324,320.194611 607.282410,310.428314 
	C595.514893,305.340179 583.429199,301.380035 570.500671,298.940186 
	C570.598328,302.547241 571.864868,304.139191 575.014954,304.982910 
	C592.442627,309.650757 608.370544,317.392731 622.375305,328.888306 
	C623.495178,329.807587 624.982361,330.538513 624.305054,333.550415 
	C608.681396,326.300964 593.812256,317.631775 577.287476,313.287384 
	C576.322327,315.148346 576.964050,316.241302 577.408997,317.248322 
	C586.768677,338.430725 594.703552,360.182434 603.275330,381.680176 
	C618.020569,418.660706 632.484070,455.731110 642.333130,494.392792 
	C647.423462,514.374695 649.521301,534.633179 647.492371,555.281494 
	C645.219604,578.411011 639.183289,600.759338 633.905579,623.267517 
	C630.155029,639.262756 627.911377,655.289307 630.161316,671.779236 
	C632.031738,685.488403 640.377258,693.462341 654.079224,693.721313 
	C672.675171,694.072815 687.491211,684.820251 701.982300,674.772461 
	C703.243225,673.898071 703.477600,672.699524 703.097412,671.248474 
	C701.991638,667.028320 702.015625,662.670776 701.553467,658.369751 
	C701.085022,654.009766 699.277039,650.362976 694.226807,648.260620 
M762.711487,302.746613 
	C781.712402,306.168610 800.710938,309.604187 819.715088,313.008301 
	C834.992859,315.744965 832.608826,317.381073 834.506836,301.662262 
	C837.559082,276.384430 840.985535,251.162933 845.506042,226.125839 
	C848.977478,206.899368 851.360413,187.455795 856.380188,168.296890 
	C852.602295,168.071640 849.829773,166.354904 849.338379,162.487320 
	C848.464844,155.612778 844.002930,152.760818 837.914978,150.977386 
	C811.976990,143.379028 785.497253,138.406738 758.797913,134.555588 
	C749.367859,133.195389 747.232117,134.553101 743.407654,143.397202 
	C738.613892,154.483078 736.698975,166.416962 734.436462,178.148926 
	C727.756104,212.789642 721.201111,247.457611 715.556091,282.291138 
	C713.027039,297.897034 710.767090,313.534332 709.282715,329.263947 
	C708.457458,338.008881 713.694092,343.421234 722.008362,343.662781 
	C725.536804,343.765259 726.611877,342.574799 726.365967,338.971680 
	C725.833435,331.169800 725.474609,323.325470 726.503662,315.522186 
	C728.034363,303.915253 735.449585,298.326202 747.082764,300.057007 
	C752.024414,300.792236 756.931335,301.761566 762.711487,302.746613 
M311.087921,493.335876 
	C311.753265,497.701691 313.445831,501.183044 318.041748,502.794922 
	C326.136230,505.633789 330.920013,503.992157 335.088837,496.354309 
	C340.978516,485.563629 343.563354,473.584778 346.567474,461.870758 
	C356.225189,424.212769 373.892700,390.514008 396.328003,359.126648 
	C408.095154,342.664276 421.137604,327.260406 437.180481,313.586670 
	C426.031769,315.568939 416.320190,319.421997 406.548859,323.173370 
	C389.488831,329.722992 373.370636,338.277130 359.005280,349.323090 
	C343.683655,361.104279 332.859070,377.005096 323.602234,394.027649 
	C306.594360,425.303833 308.815125,458.880890 311.087921,493.335876 
M748.653687,306.991516 
	C737.358337,304.679321 733.357361,307.775604 733.217957,319.124207 
	C733.140320,325.446869 733.481262,331.779388 733.253235,338.093750 
	C733.112244,341.997437 734.326721,343.801392 738.403809,344.181122 
	C749.149536,345.182007 759.878845,346.401917 770.585815,347.761810 
	C777.876343,348.687805 785.075256,349.012665 792.412842,347.927979 
	C804.376526,346.159454 815.462830,341.560242 826.789917,337.776550 
	C832.341858,335.921967 836.357605,332.057312 837.426392,324.983856 
	C808.432922,316.853149 778.637390,313.573364 748.653687,306.991516 
M877.774597,273.484680 
	C878.775330,268.938446 879.930298,264.419861 880.751404,259.841431 
	C885.596497,232.824829 890.588928,205.846863 898.677490,179.552505 
	C900.616638,173.248672 902.308228,166.868683 904.207336,160.194733 
	C897.252136,158.396622 890.687866,156.708145 884.128479,155.001190 
	C878.563477,153.553009 877.019226,154.942230 877.282898,160.614151 
	C877.456726,164.351608 880.334290,163.997772 882.568848,164.627670 
	C886.662354,165.781647 891.231873,165.706207 895.777893,169.725037 
	C888.491455,170.907364 882.757446,168.472595 876.913513,168.728577 
	C874.890381,172.206055 875.521545,176.012268 874.867188,179.558670 
	C874.463135,181.748489 875.979553,182.392715 877.828613,182.686951 
	C882.261841,183.392395 886.690491,184.131409 891.106445,184.936874 
	C892.856750,185.256134 894.406372,186.066940 894.109741,188.203812 
	C893.777649,190.596298 891.947510,190.314850 890.255188,190.004990 
	C886.656006,189.345978 883.002197,188.873016 879.485107,187.907501 
	C875.365662,186.776657 873.583923,187.616806 872.934692,192.289398 
	C867.260620,233.127029 861.384949,273.936981 855.412842,314.732300 
	C854.794861,318.953735 856.777954,320.186493 860.178589,320.420441 
	C863.173096,320.626465 866.681946,323.638519 868.372925,317.740601 
	C872.466431,303.463470 874.981140,288.889557 877.774597,273.484680 
M289.915558,234.645737 
	C285.401093,231.649506 280.886627,228.653275 275.941803,225.371414 
	C267.627533,238.916473 258.355194,251.291977 251.114853,264.978394 
	C249.962128,267.157410 250.689148,268.590179 252.227356,270.248505 
	C259.790039,278.401764 260.014587,282.394257 254.299194,291.915253 
	C250.600037,298.077515 246.281937,303.752869 240.292740,309.958649 
	C243.692596,308.824982 245.530441,307.958588 247.461563,307.612030 
	C255.919098,306.094299 262.477448,302.249969 267.146515,294.598297 
	C270.811127,288.592682 275.787262,283.387360 280.378723,277.575897 
	C275.785034,274.246338 271.488525,271.403503 267.510529,268.168945 
	C263.881470,265.218109 258.501312,263.529877 258.015167,257.490082 
	C260.714691,256.942047 262.331360,257.911041 263.862946,258.846405 
	C269.821106,262.485260 275.836761,266.049713 281.594788,269.987305 
	C284.133087,271.723083 285.926697,272.087555 287.916443,269.532654 
	C292.821259,263.234680 297.753204,256.957611 302.713043,250.702927 
	C305.177307,247.595337 304.752991,244.796326 301.687927,242.553406 
	C298.070465,239.906204 294.264709,237.516281 289.915558,234.645737 
M855.662109,329.845245 
	C854.517883,329.638336 853.298401,329.618164 852.242371,329.192474 
	C847.417847,327.247681 844.651733,328.752228 842.652832,333.615997 
	C840.870789,337.952057 837.534058,341.378815 833.223450,343.612976 
	C831.725220,344.389496 830.096008,345.144684 830.295166,347.212738 
	C831.164612,356.241913 832.489258,365.191162 834.755310,374.270538 
	C839.784668,372.251801 844.150330,370.181396 848.720886,368.778503 
	C851.688416,367.867615 853.119385,366.365936 853.749207,363.405151 
	C855.517395,355.092346 857.867065,346.949585 861.204102,339.096069 
	C864.257751,331.909149 864.153259,331.864746 855.662109,329.845245 
M839.688843,315.533569 
	C842.737793,318.642334 843.936584,316.657806 844.470825,313.664154 
	C845.317932,308.917084 846.186951,304.156738 846.666382,299.363983 
	C849.533447,270.706390 855.513062,242.522034 859.547974,214.042526 
	C860.852722,204.833206 862.580078,195.683548 864.132812,186.509781 
	C864.388977,184.996323 864.868896,183.365280 862.693848,182.959290 
	C860.542114,182.557648 860.383362,184.345398 859.955750,185.755096 
	C859.810791,186.232971 859.658447,186.713852 859.575500,187.204529 
	C857.439697,199.837402 855.177124,212.450714 853.211365,225.110077 
	C848.567505,255.015915 844.065430,284.943756 839.688843,315.533569 
M759.388306,112.311150 
	C754.431641,111.536880 749.839172,108.653969 744.025269,109.510780 
	C747.329468,112.940971 751.277405,113.735268 755.061584,114.620705 
	C774.031738,119.059395 792.993958,123.544945 812.033752,127.669250 
	C838.064514,133.307953 864.301575,138.054016 889.726624,146.218002 
	C896.041626,148.245758 896.510498,147.911377 896.898438,140.610504 
	C851.015991,132.895355 805.445618,123.466003 759.388306,112.311150 
M877.250793,321.635925 
	C879.283264,312.209167 881.184570,302.751831 883.373169,293.361450 
	C889.643799,266.456726 896.344666,239.659500 903.629456,213.008240 
	C907.227112,199.846176 910.659241,186.637939 914.045593,173.419678 
	C914.921082,170.002441 916.099915,166.254807 911.160339,163.787582 
	C910.214844,166.567719 909.235229,169.012283 908.550659,171.536850 
	C905.675293,182.141083 902.589539,192.700531 900.126892,203.402054 
	C893.670105,231.460495 887.827698,259.647614 883.265869,288.090088 
	C881.447327,299.428528 879.080627,310.667389 876.221924,321.796692 
	C876.146423,322.090424 875.824036,322.890472 876.773743,322.538757 
	C876.895569,322.493652 876.950928,322.268982 877.250793,321.635925 
M450.409698,297.082642 
	C424.846680,301.888214 401.014893,311.431580 378.103638,323.496979 
	C375.964172,324.623657 374.706787,326.111816 375.796875,328.808716 
	C378.393738,328.582855 380.451324,327.098175 382.631439,326.039948 
	C401.097137,317.076385 419.999329,309.087891 440.393433,306.087708 
	C448.297974,304.924896 453.734497,301.451233 458.758270,295.391510 
	C456.019012,295.934631 453.608765,296.412537 450.409698,297.082642 
M808.199219,135.418457 
	C787.058716,130.266891 765.360352,127.551186 744.574646,120.843697 
	C743.011902,120.339394 740.828308,119.523750 740.146423,121.502594 
	C738.465576,126.380592 737.299011,131.435776 735.693054,137.263687 
	C738.603210,136.215088 739.174072,134.538010 740.048279,133.240677 
	C742.469299,129.648117 745.831970,127.785927 750.102722,127.693985 
	C753.758911,127.615265 757.461426,127.420937 761.072144,127.861946 
	C786.523926,130.970596 811.397888,137.055176 836.267212,143.038681 
	C844.221985,144.952576 852.824036,147.012192 854.735291,157.253403 
	C854.765686,157.416412 855.265991,157.491714 855.761414,157.696625 
	C858.502258,152.788788 864.115356,152.427536 869.357849,149.779556 
	C863.623657,148.114014 858.787109,146.435242 853.823975,145.318939 
	C838.913086,141.965225 823.952820,138.830887 808.199219,135.418457 
M482.513885,298.913971 
	C486.317841,298.593872 490.126923,298.666626 493.942657,298.116211 
	C505.336548,296.472656 516.773743,296.532715 528.272095,297.310791 
	C538.161255,297.979980 547.920715,299.297272 557.911377,301.730927 
	C555.363892,295.803040 555.375916,295.677887 552.440735,295.396149 
	C533.585022,293.586365 514.738403,292.004883 495.746277,291.947418 
	C486.398346,291.919128 478.274353,294.099976 470.595245,299.497620 
	C474.360199,299.311554 477.959778,299.133667 482.513885,298.913971 
M820.361633,352.265594 
	C819.710327,350.765686 819.433960,349.222870 816.916565,349.858917 
	C808.236633,352.051880 807.217163,353.720490 810.237122,361.853485 
	C810.988342,363.876495 811.763977,365.894806 812.403625,367.954041 
	C813.910706,372.805664 815.342468,377.680695 816.698975,382.194580 
	C818.763611,382.862976 819.826660,381.836426 821.049927,381.427856 
	C825.974976,379.783020 827.604614,377.008850 825.917053,371.605133 
	C823.996399,365.455109 822.821228,359.057617 820.361633,352.265594 
M702.594910,315.079468 
	C710.586548,258.745422 720.895935,202.826950 732.918701,147.215515 
	C716.650146,204.689041 708.012878,263.546570 701.034668,322.710968 
	C701.510071,320.443970 701.985474,318.176941 702.594910,315.079468 
M794.022095,374.573151 
	C795.377380,377.232056 796.814880,379.852783 798.072021,382.557343 
	C801.407043,389.732361 802.165710,389.973907 809.159973,385.465607 
	C804.439270,377.412994 801.795654,368.545715 799.670715,359.495453 
	C799.321594,358.008240 798.923767,356.240784 796.978821,356.568054 
	C793.167786,357.209290 789.412659,358.182800 785.445557,359.060577 
	C787.473999,364.901703 791.213135,369.060913 794.022095,374.573151 
M230.549622,303.988098 
	C230.509048,304.693542 229.731552,305.472900 231.142715,306.361084 
	C237.434830,298.491180 243.380798,290.410065 247.334808,281.046387 
	C248.719406,277.767456 246.953156,275.824432 243.431091,274.136841 
	C238.568436,283.872986 233.415848,293.057709 230.549622,303.988098 
M312.412872,254.929962 
	C314.983795,251.554749 317.554718,248.179535 320.312408,244.559128 
	C317.885376,242.902267 315.722260,241.386093 313.518188,239.931961 
	C311.255829,238.439377 308.953461,237.007462 306.668610,235.548996 
	C314.552490,244.002975 314.890228,249.079956 308.041290,258.537354 
	C300.739319,268.620270 292.264832,277.823059 285.626251,288.400665 
	C283.934723,291.095917 282.344177,293.854584 280.707245,296.584106 
	C281.144287,296.859497 281.581329,297.134888 282.018372,297.410248 
	C292.232788,283.606659 300.852905,268.626709 312.412872,254.929962 
M827.242310,388.079376 
	C824.249573,389.629364 821.256897,391.179352 817.754761,392.993134 
	C822.560547,395.285034 826.415527,398.038177 831.338196,399.471130 
	C832.045105,395.425507 831.141663,392.028168 830.797180,388.636627 
	C830.581604,386.514435 829.101746,387.154388 827.242310,388.079376 
M841.652588,382.223480 
	C838.500549,387.510345 843.202637,391.007965 844.883545,395.338440 
	C846.814819,389.874481 848.746033,384.410522 850.806152,378.581909 
	C846.875244,378.588074 844.653992,380.435577 841.652588,382.223480 
M864.100464,167.136276 
	C862.573120,170.202423 861.719421,173.345932 862.681763,176.960922 
	C866.997314,173.871399 867.728394,169.565140 864.100464,167.136276 
z"/>
<path fill="#000000" opacity="1.000000" stroke="none" 
	d="
M477.807831,952.747925 
	C480.210876,953.002686 482.256348,953.003052 483.861237,954.860840 
	C482.511475,958.310059 479.453705,957.243652 477.123016,957.055908 
	C452.351807,955.060913 427.508514,956.285828 402.718231,955.271851 
	C391.550537,954.815125 380.418640,956.301392 369.288818,956.262573 
	C344.808685,956.177307 320.329285,955.469116 295.854462,954.829102 
	C293.144836,954.758301 288.335938,955.824829 288.222687,952.555664 
	C288.097961,948.954285 292.840790,950.530823 295.214355,950.527954 
	C307.692230,950.512756 320.169525,951.046570 332.649231,951.262024 
	C350.763977,951.574951 368.853577,953.488953 387.010315,951.178406 
	C393.891235,950.302795 401.000427,950.729553 407.970154,951.149963 
	C420.793488,951.923462 433.615326,951.596863 446.437042,951.640259 
	C456.761902,951.675171 467.081268,951.636719 477.807831,952.747925 
z"/>
<path fill="#000000" opacity="1.000000" stroke="none" 
	d="
M553.349731,955.825073 
	C546.892822,955.236450 540.905701,955.319946 534.907166,955.671753 
	C531.586182,955.866455 528.247437,955.886475 524.921387,955.802429 
	C523.635254,955.770020 522.015869,955.445984 522.127563,953.645020 
	C522.236145,951.895508 523.807434,951.838135 525.140747,951.741516 
	C526.136414,951.669250 527.139404,951.683716 528.139160,951.684021 
	C562.471680,951.692932 596.805786,951.513672 631.135864,951.806946 
	C645.613403,951.930603 660.083130,953.038940 674.554565,953.737061 
	C676.162537,953.814575 678.344971,953.672852 678.176331,956.072693 
	C678.015442,958.361450 675.820862,958.138123 674.243774,958.089355 
	C664.256042,957.780823 654.261475,957.542297 644.287720,956.961487 
	C615.976685,955.312866 587.636841,956.558472 559.317261,955.941956 
	C557.484619,955.902100 555.651367,955.888733 553.349731,955.825073 
z"/>
<path fill="#000000" opacity="1.000000" stroke="none" 
	d="
M693.233765,951.671143 
	C715.583923,952.711670 737.469788,953.743225 759.352539,954.836426 
	C759.843811,954.861023 760.300232,955.585815 760.791870,956.000000 
	C756.034546,960.689453 690.986877,957.820312 686.765991,952.738220 
	C688.513184,950.837524 690.797546,951.972290 693.233765,951.671143 
z"/>
<path fill="#000000" opacity="1.000000" stroke="none" 
	d="
M579.256287,632.247437 
	C558.277710,653.638916 533.441895,665.906860 503.551117,666.103943 
	C486.337585,666.217468 470.610077,660.154663 455.789398,651.708252 
	C413.302002,627.494690 387.495422,590.595520 375.272461,543.968262 
	C370.467529,525.638794 370.670074,506.847076 378.702820,489.123322 
	C385.694031,473.697693 397.831787,462.470398 411.028076,452.358734 
	C427.703583,439.581146 447.152374,434.340179 467.569946,431.747498 
	C484.273224,429.626465 500.660797,431.615295 517.222595,434.097961 
	C539.931763,437.502106 559.095215,447.692230 576.858398,461.436646 
	C590.217407,471.773285 600.040161,484.833160 606.352722,500.399078 
	C625.116028,546.666565 614.395264,587.978638 584.771240,625.977539 
	C583.135803,628.075317 581.265015,629.989746 579.256287,632.247437 
M395.903168,575.640503 
	C408.653656,600.372803 425.621674,621.406311 449.529633,636.227478 
	C480.493530,655.422852 512.857849,657.360840 545.199158,641.084534 
	C589.679321,618.699158 612.457886,564.068848 593.403381,514.985291 
	C581.632446,484.664032 560.190186,465.408966 529.893005,455.249481 
	C505.751770,447.154297 481.114655,445.396973 455.945709,449.426270 
	C435.970490,452.624115 417.621429,459.096802 402.276215,472.863708 
	C389.190521,484.603455 381.036560,498.139374 380.926056,516.608032 
	C380.800842,537.539673 385.767792,556.755371 395.903168,575.640503 
z"/>
<path fill="#000000" opacity="1.000000" stroke="none" 
	d="
M458.264648,752.922913 
	C452.988403,759.916077 447.399719,761.234741 441.483795,757.188782 
	C435.277252,752.943909 433.875641,744.958252 438.154877,738.222107 
	C441.383026,733.140503 448.663147,731.593994 454.509125,734.747864 
	C460.564117,738.014587 461.983063,744.446411 458.264648,752.922913 
z"/>
<path fill="#000000" opacity="1.000000" stroke="none" 
	d="
M451.974548,385.327087 
	C457.800079,384.082092 463.051331,383.856232 466.568176,389.307465 
	C469.811127,394.334076 469.581085,399.897736 466.051483,404.722717 
	C462.024658,410.227448 455.444183,410.829926 450.507751,406.145721 
	C444.656586,400.593536 445.176941,390.856140 451.974548,385.327087 
z"/>
<path fill="#000000" opacity="1.000000" stroke="none" 
	d="
M542.605713,391.703064 
	C549.555603,391.728516 553.149536,394.375854 554.206177,399.922485 
	C555.406128,406.221466 552.435669,413.132324 547.572754,415.355286 
	C542.817078,417.529236 537.403931,415.600281 534.786133,410.798767 
	C530.847473,403.574646 534.385742,394.530548 542.605713,391.703064 
z"/>
<path fill="#000000" opacity="1.000000" stroke="none" 
	d="
M254.797623,563.205322 
	C258.248108,558.525085 262.343231,557.106506 266.499847,559.064758 
	C270.473572,560.936829 272.764282,563.991089 271.936340,568.596680 
	C271.158020,572.926025 267.129364,576.310242 262.878021,576.466309 
	C256.296631,576.707947 252.545898,570.834473 254.797623,563.205322 
z"/>
<path fill="#000000" opacity="1.000000" stroke="none" 
	d="
M617.443481,746.943115 
	C616.951904,747.696228 616.687744,748.130371 616.338440,748.479187 
	C612.143555,752.669128 607.375488,753.325745 603.411865,750.276428 
	C599.906555,747.579834 599.044312,743.591125 601.103271,739.596802 
	C603.259766,735.413330 607.934937,733.680481 612.621399,735.327393 
	C617.511841,737.045898 618.934387,740.242371 617.443481,746.943115 
z"/>
<path fill="#000000" opacity="1.000000" stroke="none" 
	d="
M502.778687,413.891449 
	C505.596863,413.331146 507.223145,411.715393 508.621002,409.797729 
	C509.427307,408.691620 510.233643,407.568359 511.856812,408.351746 
	C513.164185,408.982758 513.863464,410.131531 513.992737,411.509430 
	C514.171021,413.409943 513.402344,415.084717 512.319397,416.597137 
	C508.207184,422.339935 497.276764,423.259277 492.244171,418.241028 
	C490.545746,416.547424 489.401184,414.534241 490.023712,411.974304 
	C490.867645,408.504181 493.023987,407.765656 495.715637,410.150299 
	C497.696564,411.905273 499.348022,414.121185 502.778687,413.891449 
z"/>
<path fill="#000000" opacity="1.000000" stroke="none" 
	d="
M564.775757,715.692505 
	C565.424561,722.417297 561.551086,726.255005 556.864685,723.982422 
	C554.503418,722.837463 552.802124,720.910095 552.953369,718.144165 
	C553.086182,715.714966 554.259705,713.545410 556.760742,712.840637 
	C559.795593,711.985596 562.715454,712.207886 564.775757,715.692505 
z"/>
<path fill="#000000" opacity="1.000000" stroke="none" 
	d="
M555.288086,346.658936 
	C554.025330,350.779510 551.335999,352.447601 547.598145,351.545929 
	C544.415588,350.778229 542.387939,348.547882 542.781250,344.965363 
	C543.136292,341.731110 545.481323,340.366638 548.341370,340.302368 
	C552.266052,340.214264 555.094971,341.867554 555.288086,346.658936 
z"/>
<path fill="#000000" opacity="1.000000" stroke="none" 
	d="
M301.814575,601.291321 
	C301.559937,602.737732 301.440338,603.963745 300.842743,604.876892 
	C298.929688,607.800049 296.346039,609.539246 292.964020,607.317932 
	C290.320984,605.582031 290.162048,602.862915 291.772064,600.333801 
	C293.818298,597.119263 296.776001,596.815491 299.922272,598.666138 
	C300.699585,599.123352 301.137085,600.158325 301.814575,601.291321 
z"/>
<path fill="#000000" opacity="1.000000" stroke="none" 
	d="
M260.222565,497.697571 
	C263.102631,499.481354 263.665039,501.719238 261.903351,504.107849 
	C260.318573,506.256592 257.917358,506.231842 255.645233,505.279877 
	C253.516769,504.388123 252.784760,502.596893 253.496796,500.427917 
	C254.547836,497.226135 257.017365,496.909271 260.222565,497.697571 
z"/>
<path fill="#000000" opacity="1.000000" stroke="none" 
	d="
M741.496399,490.560059 
	C743.542847,491.771332 744.389282,493.315399 744.280884,495.290161 
	C744.123413,498.158844 742.513672,499.892548 739.737549,500.370178 
	C737.032654,500.835602 735.129089,499.346039 734.317017,497.011902 
	C733.452576,494.527283 734.878113,492.499756 736.862671,491.071503 
	C738.091370,490.187225 739.609253,489.962006 741.496399,490.560059 
z"/>
<path fill="#000000" opacity="1.000000" stroke="none" 
	d="
M677.035583,580.097412 
	C678.967773,583.326477 678.018005,585.581177 675.257446,587.000366 
	C673.219177,588.048218 670.975403,588.038025 669.454895,585.940735 
	C667.897949,583.793274 668.102600,581.451721 669.834045,579.551331 
	C672.117798,577.044800 674.539795,577.823120 677.035583,580.097412 
z"/>
<path fill="#000000" opacity="1.000000" stroke="none" 
	d="
M769.525818,195.385193 
	C785.432434,199.232864 800.956055,202.914246 816.440063,206.755249 
	C818.983948,207.386276 823.568604,207.524963 822.695740,210.860321 
	C821.672180,214.771576 817.824585,211.634521 815.494019,211.096741 
	C792.492065,205.788986 769.545837,200.239853 746.583801,194.759033 
	C745.291077,194.450455 743.975464,194.213257 742.713623,193.808395 
	C741.756836,193.501389 740.818420,192.959122 740.877686,191.749222 
	C740.951599,190.238861 742.128418,189.899673 743.332092,189.816956 
	C746.877075,189.573380 750.265198,190.584824 753.654663,191.354156 
	C758.842102,192.531631 763.974121,193.953827 769.525818,195.385193 
z"/>
<path fill="#000000" opacity="1.000000" stroke="none" 
	d="
M813.404297,260.504761 
	C793.991577,255.536102 774.589111,252.444901 755.409729,248.294449 
	C749.881592,247.098160 744.426453,245.558746 738.952942,244.119339 
	C737.181641,243.653519 735.789856,242.601105 736.398376,240.548828 
	C737.057983,238.324432 738.818054,238.668671 740.491028,239.296936 
	C756.351746,245.253143 773.278137,246.629822 789.579590,250.703781 
	C798.608398,252.960220 807.744812,254.785385 816.828674,256.822937 
	C818.461121,257.189087 820.692993,257.641083 819.818176,259.816895 
	C818.516113,263.055145 815.901245,260.913147 813.404297,260.504761 
z"/>
<path fill="#000000" opacity="1.000000" stroke="none" 
	d="
M750.019043,262.962555 
	C767.963196,266.853912 785.360352,271.290100 803.061523,274.324493 
	C804.934998,274.645630 807.751831,274.295593 807.456055,277.916382 
	C803.630432,279.409424 799.891541,277.681000 796.353149,277.027008 
	C778.396729,273.708069 760.527649,269.916260 742.631897,266.270874 
	C741.661011,266.073090 740.703979,265.756927 739.778625,265.397827 
	C738.561462,264.925568 737.854675,264.003967 738.175781,262.672913 
	C738.499084,261.333282 739.633972,260.759430 740.856079,260.979889 
	C743.791809,261.509369 746.691833,262.236908 750.019043,262.962555 
z"/>
<path fill="#000000" opacity="1.000000" stroke="none" 
	d="
M804.817261,219.846207 
	C806.559265,220.733261 808.508728,220.864960 808.628662,222.998260 
	C808.056702,224.291092 807.026489,224.083176 806.057251,223.885696 
	C785.024048,219.600800 763.992249,215.309341 742.964050,211.000061 
	C741.103149,210.618683 739.073181,209.987106 739.456543,207.609207 
	C739.870972,205.038086 741.892822,206.130890 743.451416,206.406830 
	C763.959167,210.037323 784.191711,214.927704 804.817261,219.846207 
z"/>
<path fill="#000000" opacity="1.000000" stroke="none" 
	d="
M802.709900,164.479675 
	C805.208008,166.773453 803.973022,168.684998 802.460266,170.290833 
	C798.491821,174.503677 793.550476,177.012192 787.751099,176.023193 
	C782.711182,175.163666 777.826294,173.368744 772.895996,171.909271 
	C771.577637,171.518997 770.382874,170.731430 770.662659,169.070908 
	C770.986511,167.148560 772.616821,166.715363 774.082153,167.036728 
	C776.823608,167.637955 779.541687,168.470383 782.158203,169.491608 
	C788.212402,171.854492 793.519592,171.044891 798.118835,166.292877 
	C799.258545,165.115204 800.413025,163.789490 802.709900,164.479675 
z"/>
<path fill="#000000" opacity="1.000000" stroke="none" 
	d="
M765.431580,228.132904 
	C767.361267,231.201630 766.072083,232.118179 763.362244,231.584946 
	C756.059631,230.148026 748.786011,228.563614 741.505310,227.016602 
	C740.148315,226.728256 738.689819,226.162003 739.121948,224.490936 
	C739.606628,222.616501 741.402527,222.776688 742.861450,223.045013 
	C750.339172,224.420319 757.874268,225.547943 765.431580,228.132904 
z"/>
<path fill="#000000" opacity="1.000000" stroke="none" 
	d="
M360.412537,374.121704 
	C360.834473,373.768585 360.967499,373.667297 361.114990,373.595978 
	C363.945343,372.227142 366.585114,372.200317 368.549591,375.014740 
	C369.904358,376.955658 370.086212,379.038940 368.234283,380.842041 
	C366.556274,382.475800 364.451416,383.201019 362.367737,381.969727 
	C359.422882,380.229492 358.516266,377.611389 360.412537,374.121704 
z"/>
</svg>