<svg version="1.1" id="Layer_1" xmlns="http://www.w3.org/2000/svg" xmlns:xlink="http://www.w3.org/1999/xlink" x="0px" y="0px"
	 width="100%" viewBox="0 0 1024 1024" enable-background="new 0 0 1024 1024" xml:space="preserve">
<path fill="#000000" opacity="1.000000" stroke="none"
	d="
M371.248840,192.263062
	C373.034119,191.244888 374.901367,190.309250 375.103607,188.728546
	C375.849365,182.898987 380.457855,181.888809 384.744934,180.021591
	C405.339478,171.051666 427.096375,166.008850 448.880951,161.255783
	C502.257446,149.609741 554.969299,153.209564 606.406250,170.997330
	C624.063171,177.103424 640.554321,186.453430 657.223450,195.208359
	C681.552734,207.986557 704.743958,222.246185 725.484741,240.148865
	C750.256592,261.531067 773.865417,284.034454 788.378052,314.307007
	C792.313232,322.515442 798.173157,329.780426 802.516663,337.820465
	C805.962402,344.198700 809.281677,350.830353 808.727661,358.554474
	C808.639771,359.780243 809.432373,361.100159 809.927979,362.332245
	C820.954834,389.742737 826.400940,418.192322 828.949280,447.679016
	C831.130676,472.920166 824.908630,496.490631 820.360474,520.601013
	C815.506042,546.335205 807.270691,570.850525 794.883789,593.896423
	C785.827271,610.746338 773.037354,624.833008 760.699402,639.297974
	C745.856873,656.699097 726.890259,667.570374 706.225830,676.144592
	C704.281433,676.951416 702.383179,677.869263 699.205994,679.303040
	C712.793396,680.371277 724.993408,680.964722 737.234070,680.908752
	C765.894714,680.777710 794.557190,680.857422 823.215576,680.545715
	C831.025635,680.460815 838.830139,679.242493 846.611450,680.792114
	C850.217163,681.510254 852.806885,678.807800 856.552734,677.813721
	C855.022827,683.760132 859.415588,684.539856 863.009521,685.860229
	C868.354431,687.823792 873.460388,690.241272 878.216736,693.358826
	C881.197998,695.312805 884.268372,696.740051 887.953430,696.771179
	C891.639343,696.802307 893.655518,698.870178 894.378967,702.504639
	C896.591858,713.621521 896.056519,724.333252 890.342041,734.457886
	C889.304077,736.296814 888.199646,736.950989 886.016846,736.890564
	C864.039246,736.282471 842.056458,735.862549 820.078308,735.270447
	C816.442322,735.172485 815.085754,736.466248 815.033691,740.159119
	C814.652954,767.156799 815.890076,794.112671 816.874695,821.076782
	C817.354919,834.226807 817.866394,847.378540 818.071472,860.534058
	C818.134277,864.563416 819.445251,865.917114 823.525757,866.187744
	C835.686829,866.994507 847.846863,866.550537 860.004578,866.736511
	C862.310425,866.771790 864.617371,866.741455 867.982788,866.741455
	C864.288086,869.621399 861.086914,869.979797 857.783508,869.987244
	C846.452026,870.012939 835.118591,870.164062 823.790039,869.994507
	C819.876404,869.935913 818.409485,870.972595 817.994751,875.212952
	C817.033936,885.035095 816.660767,894.804749 817.631775,904.619385
	C817.835144,906.674316 816.932434,907.763123 815.006836,908.162476
	C811.750000,908.837952 808.504883,909.579895 805.231140,910.160339
	C802.089355,910.717468 802.115967,908.186340 802.030029,906.317505
	C801.808044,901.493835 801.921143,896.655884 801.772339,891.827576
	C801.613342,886.668823 801.025208,881.507812 801.146973,876.360107
	C801.264526,871.393494 799.011414,870.242615 794.473694,870.313904
	C770.668091,870.688110 746.857178,871.096802 723.050781,870.976135
	C682.056946,870.768372 641.087280,872.782776 600.094116,872.074463
	C596.479431,872.012024 595.226807,873.265747 594.942749,876.917786
	C593.998047,889.061340 591.747681,901.004333 588.281189,912.695618
	C586.901428,917.349121 584.974670,921.750244 582.122009,925.733643
	C575.669678,934.743530 564.426147,934.151245 559.067078,924.289734
	C555.337463,917.426697 553.997009,909.822815 553.812439,902.107605
	C553.621277,894.116821 553.732117,886.106812 554.065369,878.120056
	C554.250122,873.691101 552.996948,871.684509 548.208984,871.954468
	C537.932556,872.533691 527.635315,872.744507 517.485718,873.101196
	C516.072876,876.719543 516.974548,879.796387 517.243958,882.923645
	C518.442749,896.839233 520.274353,910.786194 516.173706,924.578308
	C514.887756,928.903381 513.327148,933.105225 511.182678,937.082764
	C505.057861,948.442932 490.164764,950.520752 481.227295,941.157349
	C472.890411,932.422913 470.064697,921.189026 467.954620,909.861755
	C466.034393,899.553772 465.189117,889.056885 464.985291,878.562744
	C464.906281,874.494629 463.681427,873.084229 459.439972,873.268921
	C436.476532,874.268799 413.506653,875.369629 390.528412,875.701904
	C372.549469,875.961914 354.526245,875.673340 336.575348,874.678772
	C317.265259,873.608887 297.952789,874.350159 278.658630,873.545410
	C275.448761,873.411621 275.258850,875.436829 275.268524,877.790955
	C275.303436,886.289734 275.312073,894.788635 275.329010,903.287476
	C275.332611,905.093201 275.329529,906.898987 275.329529,908.956665
	C269.405273,910.043518 264.057739,908.246948 258.653442,908.132935
	C256.639679,908.090515 256.729980,906.194702 256.498871,904.734192
	C255.424011,897.942566 255.934280,891.095337 255.791382,884.272339
	C255.662552,878.120911 255.162781,877.473450 248.870361,877.391907
	C238.874252,877.262268 228.875885,877.312195 218.879532,877.195251
	C217.084518,877.174255 214.359634,878.107910 214.356842,874.906128
	C214.354385,872.102478 216.816132,872.114502 218.791901,872.091248
	C228.123047,871.981262 237.459534,871.771667 246.785233,871.985535
	C251.503784,872.093750 253.231262,870.724304 252.866119,865.707764
	C250.121948,828.006409 249.285950,790.188660 246.064514,752.512695
	C245.809372,749.528687 245.621597,746.501831 245.827194,743.524231
	C246.150040,738.848328 244.374435,737.201599 239.565567,737.095642
	C216.418457,736.585938 193.282928,735.622192 170.134018,737.144409
	C163.558716,737.576843 163.693100,737.358643 163.794846,730.563538
	C163.950775,720.150940 161.378159,710.118896 159.138306,700.049011
	C158.677841,697.978821 157.479019,696.026550 158.065033,693.210205
	C224.989716,687.062012 292.200714,684.411926 359.799103,682.489746
	C332.080292,670.727234 312.263672,650.369385 294.553497,627.602173
	C281.228180,610.471985 269.139832,592.495544 260.192566,572.634094
	C255.484329,562.182556 249.218567,552.099121 247.699615,540.634094
	C245.226807,521.968933 240.750046,503.633118 238.516922,485.017639
	C236.867615,471.268768 235.477493,457.196686 237.516190,443.192993
	C237.895660,440.586365 237.807648,437.844177 237.497528,435.216278
	C236.140991,423.722015 236.007919,412.263031 238.766205,400.966858
	C241.378006,390.270599 241.536591,379.157440 244.283524,368.532288
	C251.788147,339.504425 263.585938,312.283813 278.255341,286.112091
	C289.578400,265.910645 302.623352,247.238831 318.744171,230.596680
	C333.991791,214.855972 351.465393,202.331024 371.248840,192.263062
M464.602905,657.394226
	C464.713074,647.817383 463.510132,638.086853 468.881470,628.606506
	C458.674957,627.725220 449.451385,628.439453 440.250366,629.501221
	C433.891327,630.234985 433.728455,630.202026 433.689240,623.846130
	C433.541260,599.849915 434.385773,575.857727 433.884491,551.855591
	C433.793365,547.493103 432.336090,545.673767 428.252197,544.718811
	C414.300079,541.456543 400.357147,538.212341 385.981750,537.495300
	C373.411713,536.868164 360.797974,537.175476 349.150085,542.359863
	C329.601044,551.060913 319.181519,567.455078 313.233429,587.252808
	C312.665771,589.142151 312.987518,591.431763 311.001953,593.201843
	C308.934631,590.292603 309.516876,587.395691 309.972198,584.749634
	C312.755524,568.575012 320.229156,554.883362 332.653625,544.141052
	C348.114990,530.773010 366.751709,529.132080 385.872986,531.272766
	C397.919006,532.621277 409.760559,535.710693 421.750885,537.669739
	C431.332550,539.235168 440.590637,541.954407 449.835083,544.741760
	C456.570587,546.772522 462.142426,550.695557 466.002869,556.659424
	C468.720062,560.857056 467.550110,564.298035 463.007202,566.407837
	C459.083008,568.230164 455.748718,567.061279 453.209045,563.913330
	C450.704803,560.809265 448.602203,557.384399 446.244995,554.157471
	C444.410339,551.646057 442.519012,549.132019 437.771912,548.452637
	C440.501160,574.524414 437.643646,600.032898 438.470215,626.302612
	C451.415710,623.775208 464.079834,624.252136 476.628906,623.183472
	C493.356293,621.758972 509.936279,619.488281 526.855896,619.501831
	C545.093811,619.516418 563.309875,623.031006 581.605774,619.751282
	C588.806580,618.460449 589.472351,618.489380 589.665161,611.278381
	C589.740845,608.446350 589.618591,605.589233 589.961792,602.789490
	C590.335327,599.741882 589.509399,597.657959 587.218750,595.405151
	C581.172363,589.458557 579.919312,580.946289 584.812195,575.000366
	C589.329285,569.511169 587.965515,563.960449 587.576538,558.348877
	C584.206665,556.687805 581.027893,560.379456 577.985229,557.610596
	C578.928406,553.436890 583.735474,552.924438 585.872498,549.321838
	C577.481812,550.169189 571.718628,554.629272 566.623474,560.333313
	C563.120300,564.255188 559.193237,567.532532 553.633789,568.048950
	C549.241455,568.456970 546.517883,565.514343 547.693787,561.256348
	C548.877747,556.968994 551.455566,553.481140 554.928650,550.712158
	C557.406250,548.736816 560.257629,547.029785 561.847351,544.277100
	C565.903992,537.253174 572.105652,533.135986 579.410400,530.227844
	C582.499634,528.997986 585.402649,527.306580 588.466614,526.004517
	C590.906616,524.967590 592.021484,523.354126 592.113037,520.665405
	C592.328186,514.342529 592.678040,508.021423 593.116394,501.709534
	C594.731323,478.452789 594.293152,455.092499 596.662231,431.874939
	C596.888306,429.659668 596.155701,428.418610 593.674805,428.390472
	C581.845703,428.256348 570.007568,427.509460 558.189514,428.309082
	C529.620178,430.242096 501.047363,432.160706 472.508850,434.488190
	C463.208588,435.246704 453.858246,434.611633 444.590790,436.047180
	C441.565338,436.515808 440.208130,437.390076 440.254059,440.650787
	C440.394684,450.638519 440.198303,460.606964 439.441193,470.597656
	C438.121155,488.015533 437.517212,505.486633 436.438354,522.924683
	C436.221191,526.435120 437.181854,528.282532 440.837982,528.606445
	C447.789856,529.222351 454.748749,529.834106 461.666595,530.739136
	C468.914093,531.687256 476.249298,532.356445 483.161896,534.982727
	C485.023987,535.690125 487.124359,536.757812 486.791840,539.175293
	C486.408112,541.965393 483.850006,542.237244 481.726685,542.092468
	C477.751495,541.821228 473.771515,541.322144 469.850128,540.607300
	C442.862457,535.687256 416.258118,528.757507 388.860657,525.955994
	C369.280975,523.954041 350.794067,526.524780 333.125549,535.514099
	C306.489532,549.065735 294.897736,575.319458 303.372101,603.822754
	C303.493958,604.232605 303.313782,604.732300 303.270416,605.238342
	C300.682526,605.484070 300.088623,603.517517 299.429352,601.935547
	C294.065552,589.064941 293.009888,575.708923 299.040497,563.140930
	C310.352570,539.566040 329.048920,524.521240 354.827850,518.728455
	C373.884674,514.446228 392.613281,517.968628 411.312012,521.231812
	C417.946899,522.389648 424.432983,524.400330 431.004791,526.026123
	C432.170959,523.326721 431.721436,520.804688 431.786713,518.341492
	C431.825287,516.886108 431.313416,515.673096 429.686584,515.403198
	C421.430908,514.033447 416.756287,507.646729 411.302612,502.340881
	C394.155212,485.658356 386.242920,465.249451 385.607483,441.440918
	C384.992432,418.395325 388.969360,396.021332 393.966858,373.748352
	C395.351715,367.576447 398.357483,361.916016 401.607300,356.441925
	C413.789124,335.922302 431.286133,320.577942 450.426392,307.034973
	C473.389435,290.787140 500.415527,287.690094 527.314575,285.030121
	C544.381287,283.342407 560.540405,289.097382 576.937866,292.814240
	C588.676270,295.474945 599.307861,300.167694 609.300598,306.717712
	C614.673706,310.239655 620.342651,313.310272 625.722473,316.492462
	C627.730408,314.582886 627.390869,311.731842 630.247131,310.983948
	C634.199219,318.842377 639.897095,325.613495 644.350525,333.179901
	C646.175293,336.280273 648.599243,339.277161 648.544617,343.186005
	C648.502625,346.191193 649.687256,348.685608 651.433411,350.991058
	C653.865234,354.201660 655.751709,357.727905 657.319641,361.412842
	C668.465698,387.607788 673.719666,414.764923 670.659607,443.284515
	C668.301453,465.261383 658.294250,482.498444 639.931091,495.163666
	C627.888306,503.469696 614.451538,508.889374 601.563416,515.455383
	C598.934814,516.794556 597.096924,518.191528 598.653809,521.920898
	C616.111938,512.808228 635.370911,509.830811 653.681213,503.883698
	C662.042603,501.167999 670.718628,500.811493 679.330505,503.011841
	C682.653198,503.860809 685.999329,505.430817 686.526672,509.135468
	C687.066711,512.929321 684.307068,515.560730 681.529175,517.795776
	C680.771790,518.405151 679.781799,518.766907 678.850037,519.111023
	C673.852966,520.956360 668.823120,522.713745 663.836548,524.586548
	C644.299622,531.924011 624.118652,536.907166 603.764038,541.332642
	C596.863525,542.833008 596.453918,544.058777 598.293884,551.347473
	C599.760376,552.015747 601.221436,551.499817 602.697144,551.349731
	C609.578430,550.650024 615.902100,547.996582 622.346313,545.776184
	C634.817505,541.479248 653.057007,545.569092 659.802307,554.213440
	C669.949036,567.216858 663.025024,593.596558 647.572205,599.718201
	C636.574585,604.074829 625.122498,605.468567 613.263428,603.612061
	C607.771973,602.752380 602.397339,600.730591 596.282593,601.123840
	C595.341370,617.308289 593.892029,633.222107 593.644958,649.154602
	C593.423157,663.455017 594.852600,677.773132 594.972534,692.088318
	C595.232544,723.141235 591.670166,753.886230 586.825439,784.510254
	C585.870483,790.546753 584.190125,796.609009 586.118225,802.789246
	C586.528564,804.104492 586.888733,805.463379 588.554077,805.527710
	C590.100281,805.587585 591.081848,804.530823 591.483337,803.217407
	C592.357239,800.358643 593.420227,797.477905 593.721069,794.536072
	C596.899536,763.454163 603.250549,732.743835 602.470215,701.188904
	C601.861328,676.566345 603.217529,651.891113 602.179321,627.239197
	C602.112061,625.643188 601.817566,623.865601 603.482300,622.671082
	C605.759644,623.125977 605.983826,625.139282 606.571289,626.796509
	C608.315491,631.716492 609.002380,636.813599 608.968994,642.023682
	C608.873108,656.999023 608.789551,671.974487 608.709534,686.949890
	C608.691284,690.360901 608.706848,693.772034 608.706848,697.438843
	C610.074463,697.232056 610.729431,697.185913 611.357300,697.030457
	C628.498047,692.787537 645.162292,686.968140 661.910522,681.465454
	C672.011536,678.146790 682.167297,674.770630 691.295105,669.036255
	C702.294067,662.126404 713.532410,655.608521 724.263733,648.259705
	C743.709229,634.943298 760.168213,618.489807 774.415222,599.897949
	C787.984314,582.190796 798.846802,562.927429 803.971069,540.914612
	C809.193298,518.480957 821.992188,498.111115 822.097534,474.288361
	C822.098267,474.125397 822.154541,473.959839 822.201294,473.800293
	C825.549744,462.377472 826.353455,451.107574 821.505188,439.741150
	C819.907288,435.994873 820.018799,431.603546 819.973877,427.407867
	C819.904114,420.913696 820.093323,414.353821 819.252380,407.942505
	C816.588501,387.633759 808.473816,368.938965 801.103394,350.083130
	C797.398438,340.604523 792.265625,331.931519 783.755127,325.577148
	C779.987976,322.764404 777.366333,318.362823 777.131042,313.596771
	C776.739807,305.674103 772.561218,299.759735 767.955322,294.065887
	C751.563843,273.801971 733.736206,254.989944 712.845825,239.187042
	C692.469482,223.772964 671.163757,209.844971 648.543030,197.995865
	C627.089417,186.758087 604.505188,178.235825 581.133545,172.010376
	C564.881165,167.681259 548.159058,165.730621 531.437744,163.963837
	C512.470459,161.959747 493.449341,162.037521 474.711060,165.033646
	C450.878876,168.844269 427.570740,175.358475 404.239655,181.515930
	C393.772400,184.278381 382.461578,186.035492 376.086578,196.661057
	C375.925537,196.929504 375.613251,197.164871 375.318237,197.286972
	C365.124664,201.505905 357.350311,209.308258 348.656342,215.669983
	C332.865631,227.224670 318.741547,240.759689 307.481995,256.821045
	C290.224518,281.438141 276.025726,307.812592 264.111816,335.432465
	C258.299042,348.908142 252.410278,362.285034 250.362106,377.021484
	C248.735855,388.722321 246.288040,400.315155 244.857681,412.035614
	C242.306961,432.936615 239.714737,453.722260 243.859177,474.949463
	C247.050339,491.294159 251.470490,507.317505 254.712952,523.619446
	C255.781235,528.990479 255.369293,534.615662 257.081757,539.872314
	C266.054504,567.415588 279.032104,592.695251 299.241791,613.841064
	C302.125549,616.858398 304.828217,619.992859 306.980133,623.609558
	C314.867645,636.865845 325.080994,648.266663 338.433685,655.788086
	C364.332153,670.376282 389.691345,686.428162 419.553650,692.332642
	C421.174072,692.653076 422.714905,693.371460 424.296570,693.893066
	C436.617310,697.956299 449.251617,700.718689 462.589081,703.608887
	C464.100220,688.174438 464.718079,673.286316 464.602905,657.394226
M635.001465,334.499634
	C634.412231,333.910645 633.824036,333.320679 633.233643,332.732788
	C601.620728,301.254913 563.433228,288.416565 519.387085,293.610657
	C497.891724,296.145477 477.598755,303.420715 458.309326,313.190582
	C448.606262,318.105011 440.011536,324.662872 432.460205,332.596619
	C413.255463,352.774109 402.375000,376.902161 397.075226,404.057098
	C394.307495,418.238434 394.890839,432.590881 393.150177,446.790039
	C392.144653,454.992157 394.370483,462.496460 397.547638,470.029877
	C402.845215,482.591064 411.447937,492.697754 420.423035,502.561035
	C423.152924,505.561096 426.435822,508.259735 431.568665,508.484009
	C431.928680,505.563721 432.379517,502.820618 432.581665,500.059265
	C432.909912,495.575562 433.059265,491.079071 433.312042,486.589508
	C434.286011,469.292633 435.389801,451.990692 434.374298,434.665955
	C434.204773,431.773102 435.293976,431.122192 437.586273,430.957062
	C442.569397,430.598083 447.549469,430.168793 452.538361,429.921783
	C469.502808,429.081879 486.488678,428.580719 503.433014,427.449951
	C533.171875,425.465363 562.869812,422.713837 592.709106,422.803497
	C605.526245,422.842010 605.263428,419.632080 603.945923,435.267120
	C602.194946,456.045929 602.489624,476.869659 601.352051,497.650085
	C601.251343,499.488983 600.495728,501.658051 602.581543,503.428528
	C611.630005,499.426636 621.525208,497.234711 629.875244,491.486328
	C642.075806,483.087189 653.296265,474.090942 657.492371,458.648773
	C660.898804,446.112671 662.311951,433.138885 666.417603,420.791321
	C666.916809,419.290100 666.377930,417.875580 665.950012,416.413055
	C661.135864,399.959106 656.730896,383.375122 651.483093,367.061798
	C647.811462,355.648224 645.922180,343.133789 635.001465,334.499634
M393.623230,738.058044
	C389.801270,737.821350 385.982422,737.489502 382.156830,737.362732
	C346.520538,736.181946 310.880768,738.912903 275.248260,737.282898
	C270.879730,737.083069 270.043243,738.957764 269.919800,742.874329
	C269.358032,760.700012 270.162445,778.481018 271.041138,796.270813
	C272.166290,819.050110 273.208313,841.833801 274.172333,864.620422
	C274.301025,867.662048 275.247467,868.697632 278.387329,868.335571
	C283.014984,867.802063 287.682404,868.220276 292.347015,868.380859
	C314.309814,869.136780 336.183044,871.385071 358.161163,871.953735
	C391.996796,872.828979 425.733887,869.781372 459.540222,869.863037
	C463.416656,869.872437 464.732727,868.510803 464.792847,864.611450
	C464.959564,853.797852 465.259735,842.971252 466.027069,832.186829
	C466.591797,824.250122 466.654877,816.171448 469.407410,808.530151
	C471.402618,802.991211 471.774292,797.572449 470.756989,791.592529
	C468.246277,776.833618 466.546173,761.934937 464.628174,747.078491
	C464.171448,743.540588 462.709320,741.994568 458.896210,741.801575
	C437.447266,740.716003 416.011749,739.365906 393.623230,738.058044
M595.760376,861.903687
	C594.979858,868.411255 595.299377,868.785461 602.350220,868.678162
	C640.828308,868.092712 679.304565,867.356750 717.784302,866.925964
	C743.278259,866.640503 768.776978,866.766602 794.273560,866.747498
	C797.275696,866.745239 799.975037,866.931458 799.797607,862.522827
	C799.221680,848.212524 798.776123,833.895935 798.409363,819.578491
	C797.931580,800.931885 797.239502,782.280518 797.326294,763.634460
	C797.364136,755.495483 797.738647,747.324524 797.931458,739.166260
	C798.014954,735.632751 796.665710,734.628601 793.152832,734.835266
	C783.679199,735.392578 774.164429,736.083496 764.699219,735.756775
	C750.369385,735.262268 736.042114,735.104858 721.723267,735.345947
	C685.413818,735.957214 649.239502,739.789978 612.915039,740.128845
	C609.499817,740.160645 608.328979,741.656067 607.974976,744.883667
	C605.780273,764.888672 602.797119,784.798828 600.343018,804.764954
	C598.050049,823.419434 597.301636,842.263733 595.760376,861.903687
M680.140808,703.461609
	C657.481140,702.941284 635.052002,707.926819 612.342773,706.295776
	C608.971863,706.053650 608.644531,708.675659 608.532776,711.008362
	C608.245789,716.997131 608.187378,722.996460 608.002136,728.990479
	C607.916138,731.773743 609.330627,732.889526 611.979004,732.856262
	C627.633301,732.659302 643.303650,732.855957 658.938049,732.196533
	C676.563599,731.453247 694.141907,729.330933 711.767395,728.899414
	C746.710327,728.044067 781.661011,730.220032 816.631897,728.753906
	C837.588989,727.875305 858.598267,728.242493 879.583984,728.042786
	C880.749634,728.031677 881.914612,727.917786 883.079834,727.919861
	C885.489990,727.924133 886.676636,726.851746 886.884705,724.349426
	C887.422485,717.881592 888.134399,711.428345 888.768799,704.968506
	C889.013367,702.477661 888.295532,700.727295 885.450012,700.434204
	C876.495972,699.511719 867.535522,698.626221 858.538452,699.708862
	C840.842041,701.838318 823.103455,702.967834 805.266113,703.231750
	C788.624390,703.477905 772.004211,700.894409 755.360596,703.004517
	C754.162170,703.156433 752.645691,703.573547 751.847168,701.905884
	C752.348389,699.520813 754.455505,699.466370 756.127014,699.300049
	C759.928467,698.921936 763.765137,698.684631 767.583679,698.726807
	C794.526733,699.024048 821.487976,700.540649 848.355225,696.990967
	C855.272095,696.077087 862.242065,695.565735 869.187622,694.869507
	C863.694397,691.930725 858.637451,689.099487 853.688049,686.039734
	C852.769043,685.471497 851.379761,685.115417 850.360474,685.343811
	C841.585632,687.309753 832.747009,685.767212 823.953979,685.872742
	C781.813843,686.378174 739.671570,686.560181 697.558655,684.414124
	C693.237427,684.193848 688.555969,683.741760 684.915100,686.194885
	C679.678589,689.723083 673.934082,691.661377 668.082581,693.595337
	C664.001892,694.944153 660.008484,696.556580 654.780823,698.494324
	C675.513428,699.974365 694.835266,700.235474 714.143127,699.585571
	C723.511047,699.270203 732.768005,699.540771 742.000488,700.996216
	C743.495850,701.231934 745.409119,700.924927 746.260010,703.505432
	C724.370972,703.505432 702.721497,703.505432 680.140808,703.461609
M170.950165,695.053284
	C168.240250,695.437927 165.438797,693.932556 161.971405,695.532532
	C168.930588,703.771484 171.720093,713.135620 171.782669,723.449707
	C171.800781,726.433167 173.455093,727.629272 176.783096,727.130310
	C190.458023,725.080261 204.191315,723.779846 218.066757,723.965149
	C250.373016,724.396606 282.661713,725.224670 314.947815,726.527405
	C352.886505,728.058289 390.885193,727.587646 428.817078,729.607056
	C438.790894,730.138000 448.787994,730.228760 458.763062,730.741638
	C462.845367,730.951477 464.112823,729.303406 463.671692,725.450928
	C463.236572,721.650696 462.896484,717.809937 462.947144,713.992737
	C462.991882,710.618469 461.571136,709.392822 458.366272,708.884705
	C442.054108,706.298218 426.300720,701.342834 410.386108,697.116638
	C389.403809,691.544495 368.282776,687.199280 346.450836,687.288086
	C326.297760,687.369995 306.207886,689.251709 286.044220,689.259216
	C274.895874,689.263367 263.747711,690.070862 252.599655,690.520874
	C225.658585,691.608521 198.848831,695.038086 170.950165,695.053284
M561.752563,835.486755
	C563.958679,828.314087 566.437439,821.217163 569.800659,814.520020
	C573.676270,806.802551 576.406250,799.009399 577.851135,790.297180
	C580.648926,773.427124 582.830627,756.471863 585.861877,739.808716
	C584.147644,738.167908 582.240479,738.302307 580.453247,738.156006
	C552.830688,735.894226 525.168274,737.468140 497.523346,737.310059
	C494.687439,737.293884 493.234222,738.367188 493.253296,741.437317
	C493.308167,750.262329 494.019012,759.041870 495.049103,767.788452
	C496.153717,777.168213 498.749695,786.451294 496.448669,795.996765
	C496.064819,797.588989 496.626923,798.902344 497.713074,800.098877
	C505.220184,808.369568 509.100311,818.364990 511.445740,829.088013
	C513.866394,840.154907 515.072937,851.367432 515.498413,862.673401
	C515.658264,866.921448 517.027405,869.429443 522.082153,869.054443
	C531.544556,868.352478 541.042358,868.085815 550.530029,867.786377
	C554.062927,867.674866 555.392639,866.033142 555.854797,862.618530
	C557.062073,853.698914 559.293213,844.974365 561.752563,835.486755
M589.126160,673.256592
	C588.652283,665.291443 587.205688,657.388184 587.702942,649.359802
	C588.113953,642.723206 588.518616,636.083740 588.753052,629.439392
	C588.974670,623.159729 588.834229,622.750244 582.402954,623.404968
	C569.822327,624.685852 557.291138,625.235779 544.637695,624.405762
	C527.145081,623.258484 509.756439,626.030945 492.298523,626.561584
	C489.238739,626.654663 486.192352,627.189087 482.674500,627.570068
	C485.599365,635.158081 488.344238,641.937744 488.426300,649.720032
	C488.605164,666.685486 489.679718,683.640991 490.343201,700.602356
	C490.436859,702.996216 490.827606,704.841980 493.810425,705.006775
	C505.439819,705.649475 517.029053,707.018127 528.698669,706.932068
	C532.443848,706.904419 535.239624,706.364441 535.860718,701.436523
	C536.505676,696.319214 538.539124,695.938965 542.721497,699.065308
	C543.918213,699.959778 545.167908,700.815674 546.488708,701.507019
	C558.901123,708.004395 572.411682,706.129456 585.610657,706.497803
	C588.396240,706.575500 588.288513,703.943420 588.606812,702.057739
	C590.170044,692.798462 589.991943,683.492188 589.126160,673.256592
M522.371582,730.049744
	C542.146973,731.550232 562.014709,729.415161 581.778076,731.558044
	C583.906433,731.788879 586.248901,731.946411 586.862915,728.917847
	C587.949646,723.557312 587.804382,718.154419 588.188477,712.273376
	C585.567444,712.273376 583.599426,712.289978 581.631775,712.270813
	C561.657166,712.076416 541.672974,713.107544 521.707397,711.434570
	C513.091797,710.712463 504.421356,710.639832 495.774750,710.299072
	C493.528534,710.210632 491.243317,710.160583 491.320343,713.435730
	C491.414246,717.429871 491.417816,721.427673 491.598724,725.417664
	C491.733521,728.390808 493.183472,729.687561 496.419067,729.659302
	C504.744202,729.586670 513.072632,729.891663 522.371582,730.049744
M481.016479,781.684509
	C482.173676,791.971863 482.486664,792.543701 487.247162,793.003357
	C488.513947,791.197327 488.022552,789.140442 487.889252,787.202881
	C486.621185,768.771118 485.102966,750.354797 484.012146,731.913025
	C482.291321,702.819946 481.151733,673.699707 480.889771,644.551697
	C480.858185,641.034973 480.660095,637.523743 479.529694,634.190247
	C478.698364,631.738892 477.762024,629.140808 474.622772,628.647217
	C467.574768,641.303406 471.273468,729.769592 481.016479,781.684509
M603.548279,535.929504
	C607.725647,534.832214 611.879944,533.636169 616.084290,532.654297
	C636.032166,527.995911 654.913818,519.910156 674.618713,514.462280
	C677.358215,513.704834 680.202087,512.460571 681.332764,509.083679
	C678.315857,506.681824 675.075012,506.113556 671.719482,506.398041
	C667.419312,506.762604 663.052551,507.028625 658.873169,508.011658
	C639.601196,512.544495 621.247681,520.024292 602.392212,525.902771
	C591.689270,529.239502 581.646484,533.984375 571.992249,539.613220
	C569.472961,541.082092 567.135864,542.673645 569.758789,546.347229
	C580.270203,540.826477 591.696289,539.104614 603.548279,535.929504
M259.466400,736.020630
	C252.375427,734.692505 251.843292,735.029480 252.244064,742.120728
	C252.854721,752.925659 253.452911,763.741333 254.528290,774.505310
	C254.983704,779.063538 255.451523,783.803345 257.819458,787.968628
	C258.018768,788.319275 258.558868,788.476074 258.806122,788.635925
	C260.293579,788.144958 259.701721,785.836121 261.620697,785.998291
	C263.625275,787.009033 262.962860,789.616089 264.770844,791.229431
	C264.770844,788.950806 265.082458,786.938782 264.721436,785.055725
	C261.881134,770.240845 261.603546,755.270569 261.755157,740.264587
	C261.770172,738.778015 261.843903,737.203003 259.466400,736.020630
M258.687195,826.942749
	C258.083557,830.827515 259.346405,834.535217 259.722565,838.328247
	C260.095612,842.090088 260.138855,845.884583 260.252319,848.167969
	C268.281830,833.985535 270.674377,818.326538 260.825653,803.659485
	C261.151154,810.591614 261.792542,818.610352 258.687195,826.942749
M596.360229,558.732849
	C593.912659,561.719849 595.179749,564.868713 595.677856,567.990723
	C606.509583,568.203918 615.400574,565.908508 618.421692,561.567932
	C610.933167,561.162476 604.282776,558.287170 596.360229,558.732849
M261.154083,863.889038
	C263.521301,871.331543 260.684570,879.423889 263.738220,886.991211
	C269.475922,881.806396 270.803040,874.019043 267.964905,862.003906
	C265.950073,864.181946 263.505798,863.052673 261.154083,863.889038
M809.674011,737.761719
	C809.152039,734.054993 806.744263,735.117493 803.907043,735.558044
	C805.822083,746.914673 802.667419,758.612976 807.905640,769.369202
	C809.658630,759.105530 807.944397,748.770996 809.674011,737.761719
z"/>
<path fill="#000000" opacity="1.000000" stroke="none"
	d="
M404.633240,637.771423
	C394.553009,638.032166 385.357391,635.926636 376.603333,632.023804
	C359.985016,624.614746 354.443207,611.118103 360.802368,593.987915
	C367.083557,577.067810 380.754822,568.648560 398.678284,570.848633
	C403.959473,571.496887 409.161377,572.650391 414.156036,574.623169
	C419.020081,576.544250 422.470764,579.491089 422.503540,585.181580
	C422.532745,590.254089 419.151520,594.909119 413.965424,596.944275
	C409.823181,598.569763 405.491150,598.421509 401.158203,598.338806
	C399.701416,598.310974 398.226868,597.570251 396.349487,598.598694
	C396.211670,601.266479 396.061920,604.164734 395.895081,607.393860
	C400.122131,607.839050 404.048035,608.241150 407.971283,608.667969
	C417.653259,609.721191 422.000153,613.394531 421.885498,620.407959
	C421.734741,629.630676 416.055359,636.352844 407.537903,637.393066
	C406.712250,637.493835 405.888458,637.609985 404.633240,637.771423
z"/>
<path fill="#000000" opacity="1.000000" stroke="none"
	d="
M291.675842,373.722961
	C305.941254,346.538910 318.727814,319.066864 328.189270,290.224976
	C331.759277,279.342346 334.208527,268.095490 338.786469,257.512665
	C341.851990,250.426041 345.876495,243.957336 350.514069,237.829391
	C352.910767,234.662460 356.007904,232.537292 359.838257,231.497284
	C363.105621,230.610168 365.688721,231.845306 367.930420,234.141937
	C370.176147,236.442719 370.625854,239.123215 369.276794,241.949753
	C367.846405,244.946594 366.525085,248.108002 364.506226,250.689178
	C359.577179,256.991028 356.998596,264.256439 354.356293,271.670532
	C342.058868,306.175842 328.012451,339.980530 312.958954,373.373138
	C306.940002,386.724854 301.002869,400.118500 296.252380,413.997192
	C293.588867,421.778778 292.183868,429.753845 292.116791,437.993408
	C292.016571,450.303314 292.296143,462.634277 290.308105,474.858368
	C289.683105,478.701447 288.297180,482.229523 286.412689,485.591522
	C284.717102,488.616486 282.135040,490.352783 278.648865,490.016205
	C274.865814,489.650879 272.070648,487.625488 270.954620,483.863342
	C270.391510,481.965057 269.962799,479.952179 269.928223,477.983124
	C269.471558,451.955292 270.251373,426.087799 278.630554,401.019318
	C281.827637,391.454468 286.375122,382.636505 291.675842,373.722961
M279.088501,418.458435
	C273.743652,438.358215 274.347809,458.721863 274.375061,479.039581
	C274.375732,479.533478 274.415527,480.065399 274.597504,480.514557
	C275.488373,482.713501 276.521332,485.077728 279.119720,485.395874
	C282.099487,485.760773 282.942657,483.159332 283.701050,480.968719
	C285.675903,475.264496 286.591614,469.368652 286.802429,463.328461
	C287.203247,451.846344 287.126648,440.303528 288.350372,428.904205
	C290.298828,410.754364 297.890076,394.172455 305.626465,378.017273
	C325.426910,336.669739 340.526733,293.429962 358.027985,251.163376
	C358.133240,250.909164 357.942474,250.532364 357.804382,249.692642
	C355.239197,249.830856 353.700043,247.731750 351.969452,246.160995
	C350.405304,246.875000 349.954956,248.203918 349.292053,249.316437
	C342.503693,260.709076 338.432953,273.134308 334.450165,285.739868
	C324.800751,316.280457 312.671753,345.878510 296.905457,373.819305
	C289.066559,387.711243 282.560181,401.997314 279.088501,418.458435
M356.693451,241.011963
	C356.261047,242.274628 356.333008,243.440582 357.922394,243.571487
	C359.878876,243.732620 361.426758,242.772003 362.415710,241.096298
	C362.850067,240.360275 362.839630,239.364243 362.053009,238.876175
	C359.871216,237.522461 358.370972,238.786530 356.693451,241.011963
z"/>
<path fill="#000000" opacity="1.000000" stroke="none"
	d="
M750.877930,324.215973
	C758.431335,340.889130 761.953552,358.091156 762.076782,375.937225
	C762.253967,401.590302 761.465820,427.227295 758.044189,452.680573
	C756.603027,463.401520 754.430054,474.086914 747.528687,483.007751
	C746.516479,484.316162 745.466797,485.649323 744.209900,486.703278
	C741.788757,488.733551 739.016541,489.779877 735.889282,488.366516
	C732.780090,486.961273 731.682922,484.298065 731.618286,481.064392
	C731.430054,471.650513 733.467651,462.521729 735.642029,453.487976
	C739.905212,435.776428 743.251099,417.855927 742.613342,399.674988
	C741.516907,368.421112 737.359802,337.623688 723.337036,309.041779
	C722.173096,306.669281 720.348877,304.628754 719.070007,302.302826
	C717.173950,298.854553 716.728455,295.201447 719.511292,292.052002
	C722.358215,288.830017 726.037354,289.231781 729.654724,290.668427
	C732.363220,291.744080 734.617554,293.537964 736.010376,296.079163
	C741.047852,305.269867 746.670532,314.154327 750.877930,324.215973
M741.916809,452.728790
	C739.988037,461.328461 738.048035,469.925629 736.138489,478.529541
	C735.656250,480.702545 735.233093,483.064758 737.885193,484.096802
	C740.289001,485.032257 741.460205,482.899567 742.723572,481.443542
	C747.275085,476.197662 750.658997,470.308685 751.701477,463.353729
	C756.620422,430.537323 759.011902,397.556519 756.537354,364.412567
	C755.005127,343.889832 749.110291,324.556488 737.886658,307.077484
	C736.936523,305.597839 736.351379,303.714844 734.321777,303.227173
	C728.392151,310.061768 728.163330,310.167725 730.797424,315.856598
	C742.348083,340.802887 746.210022,367.271637 747.215637,394.449310
	C747.934998,413.889648 745.774719,432.979553 741.916809,452.728790
M724.128357,295.438324
	C720.594849,297.965851 722.549377,300.564575 724.487915,302.514069
	C726.904541,304.944305 728.615601,302.252075 730.304871,300.875122
	C731.235718,300.116364 731.840393,299.021515 730.949097,297.816437
	C729.436646,295.771484 727.383484,294.921875 724.128357,295.438324
z"/>
<path fill="#000000" opacity="1.000000" stroke="none"
	d="
M736.913635,561.969482
	C748.589111,543.916687 755.502441,524.046570 763.883118,504.830353
	C771.463501,487.449188 780.183838,470.569092 791.144836,454.972229
	C793.381348,451.789795 795.957886,449.017212 799.397278,447.137909
	C804.204041,444.511444 808.331604,445.155029 811.883911,449.356171
	C815.799255,453.986908 817.113892,459.329498 815.266907,465.205139
	C813.419495,471.082031 809.207703,474.391785 803.172668,474.793091
	C799.381165,475.045197 798.098083,476.742310 797.620850,480.245361
	C796.586487,487.838776 793.276794,494.480957 788.559021,500.513733
	C778.883484,512.885864 773.754089,527.636841 767.449463,541.738098
	C760.238403,557.866455 752.199341,573.562073 743.643738,588.993774
	C739.425781,596.601624 734.058594,603.453308 727.082703,608.768433
	C721.188782,613.259033 715.656860,613.069641 711.856140,608.752014
	C707.545837,603.855530 708.022339,598.219788 713.617493,592.869324
	C722.987671,583.908752 729.725708,573.006531 736.913635,561.969482
M747.909424,552.340759
	C739.104187,568.480591 729.407227,583.974915 715.941162,596.766113
	C714.222900,598.398315 712.840393,600.125732 713.821350,602.903320
	C715.683044,608.174927 719.849365,609.475647 724.311890,605.503418
	C730.309570,600.164673 735.399597,593.918823 739.317993,586.917542
	C750.545166,566.857056 760.681030,546.241943 769.999573,525.223572
	C772.899475,518.682739 775.301331,511.876801 779.321106,505.893372
	C785.628479,496.505066 792.601013,487.515137 794.003906,475.686462
	C794.395752,472.381958 796.721436,470.284363 800.431274,470.989563
	C810.212524,472.848785 813.492310,462.594116 810.993591,456.106445
	C809.804810,453.019897 808.044617,450.260498 804.743958,449.467957
	C801.243652,448.627502 799.361023,451.439178 797.510864,453.807831
	C785.099548,469.697601 776.241699,487.672180 768.547729,506.077087
	C762.121582,521.449341 755.995422,536.914124 747.909424,552.340759
z"/>
<path fill="#000000" opacity="1.000000" stroke="none"
	d="
M412.801392,286.835907
	C421.456146,278.223450 430.517426,270.603516 440.407745,264.108521
	C445.509583,260.758118 451.202972,257.873322 457.765656,259.693665
	C463.135834,261.183258 464.103851,263.964630 461.824738,269.057495
	C458.368439,276.781067 453.147095,281.835480 444.668274,284.342041
	C430.723969,288.464386 421.754730,298.761047 415.459442,311.371155
	C409.659912,322.988068 404.801300,335.043427 400.027466,347.120453
	C398.596619,350.740204 396.839264,354.096497 393.063568,355.877625
	C387.257935,358.616272 382.171448,355.745819 381.759247,349.337555
	C381.465179,344.766144 382.885193,340.504517 384.345673,336.218964
	C390.555511,317.996674 400.608002,302.010254 412.801392,286.835907
M399.437134,335.975922
	C402.116211,329.706512 404.882904,323.472870 407.457642,317.160919
	C414.607941,299.632019 426.566956,286.622467 443.523651,278.140167
	C448.129974,275.835938 452.584686,273.173096 456.025055,269.192139
	C456.880188,268.202606 457.908295,267.027435 457.235962,265.630463
	C456.432709,263.961517 454.708252,264.164185 453.257263,264.424591
	C447.920074,265.382324 443.065186,267.542969 438.897491,271.001648
	C430.451416,278.010834 422.025787,285.086609 414.575775,293.155792
	C402.183685,306.577911 392.938293,321.790436 389.720490,340.096741
	C389.176727,343.190308 388.280762,346.528687 391.016022,349.810974
	C395.561279,346.281006 396.903351,341.193848 399.437134,335.975922
z"/>
<path fill="#000000" opacity="1.000000" stroke="none"
	d="
M622.982666,251.791077
	C619.685608,246.496338 620.471375,239.451416 624.573547,235.453598
	C626.820618,233.263702 629.260803,233.198151 631.785522,235.036194
	C636.998108,238.830948 637.832947,244.748917 633.846802,249.892517
	C633.147827,250.794388 632.089661,251.450104 631.967834,253.156784
	C651.520264,255.983612 667.078064,268.230316 684.666504,275.854706
	C686.649170,276.714203 688.666382,278.602997 691.250427,276.215057
	C688.521729,272.866394 684.612976,271.273071 681.273193,269.004547
	C675.187927,264.871277 669.163574,260.756226 664.802307,254.652939
	C663.250854,252.481705 661.688782,250.364182 660.599304,247.888397
	C658.962341,244.168777 659.833313,241.005768 662.525879,238.296066
	C665.163147,235.642044 668.436951,235.102432 671.720703,236.818420
	C685.672424,244.109146 694.417664,255.659592 698.280212,270.758636
	C699.852539,276.904877 694.836609,281.936462 688.464966,281.289795
	C684.765686,280.914368 681.430115,279.341248 678.202087,277.566650
	C670.465820,273.313599 662.765747,268.992889 654.984131,264.824493
	C648.356628,261.274323 641.458130,258.428925 634.003723,257.003326
	C630.067505,256.250549 626.259277,254.968582 622.982666,251.791077
M683.484558,252.005981
	C680.371338,247.829849 676.773987,244.160904 672.144714,241.675919
	C670.272400,240.670853 668.205444,239.409943 666.234131,241.499756
	C664.460754,243.379715 664.997375,245.499496 665.956909,247.540192
	C671.568665,259.474792 683.427734,264.446350 693.065063,272.048309
	C692.512939,264.251709 688.434631,258.307007 683.484558,252.005981
M625.357971,244.653748
	C625.264343,246.356598 625.270264,248.200974 627.205383,248.779282
	C629.053284,249.331543 629.916077,247.632111 630.348755,246.313507
	C631.219238,243.660706 631.703491,240.898911 628.749023,238.966995
	C626.654907,240.181763 626.177124,242.147385 625.357971,244.653748
z"/>
<path fill="#000000" opacity="1.000000" stroke="none"
	d="
M572.474365,198.054138
	C574.433411,206.551849 570.403870,212.544159 562.177734,212.923218
	C556.904419,213.166245 551.521362,212.602127 546.285278,211.778320
	C531.782532,209.496613 519.321350,213.601059 508.427643,223.114456
	C504.765076,226.312973 501.105621,229.507507 495.969421,229.967163
	C492.732361,230.256821 489.451202,229.992157 487.202393,227.401169
	C484.831757,224.669769 486.383636,221.640259 487.570343,218.941208
	C490.798004,211.600311 497.050781,206.908600 503.295654,202.563248
	C519.896912,191.011642 538.223694,185.583374 558.548096,188.864426
	C564.290649,189.791489 569.421387,192.102112 572.474365,198.054138
M543.620239,192.209229
	C523.516724,193.495987 507.047455,202.280701 493.305481,216.649673
	C492.514343,217.476929 491.892334,218.509476 491.361542,219.534485
	C489.330109,223.457382 490.529327,225.459366 494.990143,225.709976
	C499.054260,225.938293 501.752258,223.613983 504.444977,220.965714
	C513.366882,212.191071 523.979065,207.236160 536.677124,207.654434
	C544.815796,207.922546 552.941956,208.561310 561.075623,208.996445
	C564.722473,209.191544 567.210144,207.445175 568.199097,203.999435
	C569.121765,200.784500 567.771973,198.103271 565.288513,196.081299
	C563.470825,194.601395 561.319153,193.731110 558.977234,193.257950
	C554.212524,192.295288 549.403870,192.147980 543.620239,192.209229
z"/>
<path fill="#000000" opacity="1.000000" stroke="none"
	d="
M308.595581,439.154785
	C307.210144,434.825165 305.625549,430.922180 305.668152,426.679962
	C305.733551,420.165283 309.786987,417.327759 315.975098,419.271606
	C320.795013,420.785645 323.913666,424.040039 325.684814,428.624115
	C327.303314,432.813202 329.034119,436.995453 330.179657,441.322540
	C332.128143,448.682861 336.066772,454.411682 342.955322,457.683868
	C349.827545,460.948334 352.166260,467.520752 354.876678,473.639740
	C356.727997,477.819275 353.368744,485.101807 349.437378,487.688324
	C346.559723,489.581604 344.230469,489.095795 342.071503,486.402710
	C336.250854,479.141968 336.260712,472.785858 342.461487,463.989990
	C340.359558,460.789581 336.488861,459.552368 333.834259,456.888947
	C331.058075,454.103485 329.809509,450.425354 327.614655,447.237915
	C326.020477,446.888458 324.352203,449.756409 322.885712,447.128906
	C321.561462,444.756256 323.869904,444.455811 324.864166,443.343079
	C325.247223,442.914398 325.510681,442.041168 325.350647,441.516174
	C323.417786,435.174194 322.110809,428.473114 316.479095,424.035767
	C314.913300,422.802002 313.040649,421.549316 311.040619,423.010529
	C309.187164,424.364594 309.311584,426.344421 309.876923,428.448334
	C312.574951,438.488861 317.540405,447.179779 324.989563,454.449280
	C326.060455,455.494415 327.022705,456.650299 328.047089,457.743835
	C329.087555,458.854462 330.438507,460.116699 328.992554,461.556366
	C327.514709,463.027802 326.267517,461.419495 325.141296,460.567657
	C317.801910,455.016357 312.513672,447.852844 308.595581,439.154785
M350.539093,475.882812
	C349.331177,473.271545 348.854553,470.187561 346.072540,468.507538
	C342.472656,470.292511 341.762970,473.224762 342.343658,476.530396
	C342.818268,479.232361 343.220490,483.070953 346.416779,483.027985
	C349.286865,482.989349 350.593262,479.697845 350.539093,475.882812
z"/>
<path fill="#000000" opacity="1.000000" stroke="none"
	d="
M556.233398,449.092896
	C522.382019,451.681610 488.970917,453.123016 455.433105,452.657959
	C459.201538,449.932190 463.402283,449.399475 467.583923,448.982697
	C476.707611,448.073395 485.864655,447.983826 495.029999,448.047333
	C516.362427,448.195129 537.538696,445.596741 558.786316,444.258545
	C568.789795,443.628540 578.235840,446.492889 587.850708,448.356812
	C588.696472,448.520782 589.224487,449.248718 589.252869,450.998993
	C583.773743,452.516266 578.494446,450.118500 573.176147,449.497742
	C567.681946,448.856384 562.199768,449.080292 556.233398,449.092896
z"/>
<path fill="#000000" opacity="1.000000" stroke="none"
	d="
M428.668579,228.841095
	C420.716644,232.487640 413.192108,236.057938 404.604675,231.605423
	C396.948669,227.635880 392.614929,219.667542 394.622955,212.447952
	C397.204498,203.166183 404.657959,197.530121 413.642212,198.263321
	C419.291077,198.724350 424.793488,200.059189 430.184967,201.778351
	C435.261749,203.397141 439.258789,206.443314 440.007507,211.965652
	C440.782928,217.685059 438.238068,222.323654 433.638733,225.752457
	C432.179230,226.840515 430.549377,227.700073 428.668579,228.841095
M415.530640,214.658844
	C420.329773,216.252457 425.471710,217.145370 429.205841,221.234085
	C419.291565,219.666168 409.518921,213.573792 399.242249,221.175674
	C404.053558,227.936935 410.269501,229.956711 417.475861,228.609146
	C425.411530,227.125229 432.584930,224.103394 435.258911,215.406906
	C436.371216,211.789368 435.245880,208.783401 431.800018,206.990829
	C425.209595,203.562408 418.267944,201.613571 410.732605,202.118271
	C404.798035,202.515747 401.483551,206.099640 399.356842,211.163361
	C398.872162,212.317307 398.029388,213.682938 399.184814,214.889908
	C400.262024,216.015167 401.667664,215.651566 402.927063,215.201859
	C406.792297,213.821609 410.718872,213.687515 415.530640,214.658844
z"/>
<path fill="#000000" opacity="1.000000" stroke="none"
	d="
M730.568298,374.555786
	C732.775574,382.835510 736.920105,389.801422 741.564270,396.956512
	C737.955139,398.015747 737.015747,395.692169 735.893738,394.117065
	C731.203430,387.533081 728.846313,379.845490 725.829468,372.464478
	C723.593506,366.993896 721.728577,361.230103 716.164734,357.175537
	C712.857422,361.561035 712.464294,366.268860 712.931885,371.041626
	C713.445740,376.286377 715.765747,380.890778 718.795715,385.170868
	C722.749146,390.755371 725.974060,396.752075 728.534668,403.097412
	C729.397339,405.235046 730.129333,407.415741 728.931580,409.494934
	C726.602600,410.014618 725.749634,408.602020 725.077148,407.337097
	C719.704956,397.232574 712.961182,387.802002 709.860779,376.574158
	C708.130554,370.308228 708.345032,364.028107 710.162842,357.866241
	C710.946411,355.209991 712.038269,352.155762 715.428772,351.884186
	C718.491394,351.638885 720.769226,353.559570 722.432800,355.985840
	C726.240845,361.539856 728.394592,367.843201 730.568298,374.555786
z"/>
<path fill="#000000" opacity="1.000000" stroke="none"
	d="
M503.856323,529.039062
	C495.137085,528.267578 490.404724,524.716431 489.669281,518.725952
	C488.696930,510.805695 493.581940,502.913696 501.061890,500.320587
	C508.190430,497.849213 515.424255,500.393677 519.169373,506.689667
	C522.820923,512.828369 518.983765,522.730347 511.339966,526.749573
	C509.131073,527.911072 506.775787,528.725708 503.856323,529.039062
M502.349457,520.909729
	C503.957458,520.524963 505.659485,520.359131 507.156342,519.715759
	C512.305420,517.502747 515.591187,511.884766 513.910034,508.461700
	C511.609894,503.778290 504.619263,502.492340 499.435425,505.912140
	C498.213501,506.718262 497.055603,507.801270 496.241974,509.008759
	C494.588074,511.463348 492.432190,514.060608 493.902069,517.225464
	C495.329681,520.299377 498.357727,520.970520 502.349457,520.909729
z"/>
<path fill="#000000" opacity="1.000000" stroke="none"
	d="
M502.054504,471.100037
	C484.338928,471.826355 467.180023,475.682922 449.800720,472.774323
	C469.464294,469.411163 489.182129,467.049774 509.054352,466.213226
	C510.873657,466.136627 512.590332,467.207031 512.682129,469.680359
	C509.518036,471.726257 505.896179,470.555481 502.054504,471.100037
z"/>
<path fill="#000000" opacity="1.000000" stroke="none"
	d="
M590.835144,290.189880
	C588.788818,291.637726 587.040100,290.902557 585.598572,289.807281
	C580.334229,285.807587 575.133484,281.720612 570.005493,277.547729
	C568.791565,276.559845 567.187866,275.362610 567.900696,273.425507
	C568.552856,271.653107 570.371765,271.188904 572.004578,271.111847
	C578.353271,270.812378 584.031738,272.750793 587.438782,278.237640
	C589.549988,281.637787 593.422302,284.956787 590.835144,290.189880
z"/>
<path fill="#000000" opacity="1.000000" stroke="none"
	d="
M345.822266,419.149506
	C344.370026,415.190186 343.056244,411.600586 341.703308,408.025818
	C340.801239,405.642365 340.381927,403.196716 340.881104,400.686615
	C341.966461,395.229095 347.815796,393.315857 351.976959,397.018127
	C357.013550,401.499359 359.483459,412.581818 356.889771,419.289276
	C355.817139,422.063232 354.250153,424.283936 350.822723,424.325012
	C347.524292,424.364563 346.842896,421.861969 345.822266,419.149506
M349.984711,418.341125
	C352.199829,418.745422 352.226471,416.835083 352.662354,415.612823
	C354.323700,410.954315 353.103973,406.424774 351.507935,402.062714
	C350.750305,399.992004 348.948425,398.178436 346.477692,399.216583
	C344.045837,400.238373 344.126770,402.574829 344.910522,404.787140
	C346.458771,409.157166 348.049438,413.512146 349.984711,418.341125
z"/>
<path fill="#000000" opacity="1.000000" stroke="none"
	d="
M483.715149,592.937256
	C475.322601,593.313721 467.389130,593.703552 459.452789,594.021240
	C457.941589,594.081787 455.807861,594.923523 455.575592,592.323242
	C455.370117,590.022461 457.238037,589.888428 458.936646,589.601624
	C469.648010,587.792969 480.380951,587.916443 491.127899,589.172791
	C492.078369,589.283936 493.152222,589.278564 493.947845,590.578918
	C490.950043,592.594299 487.499176,592.532593 483.715149,592.937256
z"/>
<path fill="#000000" opacity="1.000000" stroke="none"
	d="
M547.795776,466.024292
	C547.428101,463.704437 548.813965,463.546173 550.203308,463.610107
	C561.993469,464.152405 573.821716,463.570251 585.586975,464.810364
	C586.247559,464.879974 586.910034,465.037628 587.131836,465.843658
	C584.879822,468.807404 558.683167,469.177094 547.795776,466.024292
z"/>
<path fill="#000000" opacity="1.000000" stroke="none"
	d="
M466.658813,498.963470
	C467.873718,499.911255 468.860168,500.566681 469.589539,501.437408
	C470.551941,502.586365 471.385223,503.955902 470.491333,505.495758
	C469.656219,506.934357 468.174164,507.431335 466.629913,507.114319
	C463.547180,506.481415 460.534973,506.194092 457.330414,506.451813
	C453.849030,506.731781 454.446625,503.974182 455.246735,501.928223
	C456.701874,498.207336 461.084259,497.039215 466.658813,498.963470
z"/>
<path fill="#000000" opacity="1.000000" stroke="none"
	d="
M543.390137,534.655273
	C540.903015,536.701233 538.385193,537.107056 535.670654,536.443359
	C534.064270,536.050537 532.385925,535.628662 531.902771,533.720337
	C531.411682,531.780762 532.149414,530.140930 533.481262,528.775574
	C535.816101,526.381958 541.093262,526.621643 543.893005,529.220032
	C545.844055,531.030701 546.178772,532.797546 543.390137,534.655273
z"/>
<path fill="#000000" opacity="1.000000" stroke="none"
	d="
M475.382263,607.762634
	C478.323578,609.195190 477.561615,610.453735 475.320740,610.596375
	C469.069794,610.994141 462.795990,611.053162 456.529816,611.173828
	C455.234406,611.198792 454.251770,610.476990 454.394104,609.038330
	C454.590240,607.054749 456.093933,606.875366 457.681427,606.945740
	C463.448334,607.201416 469.215240,607.457764 475.382263,607.762634
z"/>
<path fill="#000000" opacity="1.000000" stroke="none"
	d="
M565.717896,495.532715
	C566.258057,495.426971 566.420166,495.380402 566.585022,495.366241
	C568.945557,495.163055 571.455017,494.939606 572.705505,497.476013
	C573.611755,499.313995 572.226990,500.729645 570.806458,501.610229
	C568.283264,503.174408 565.457764,503.858368 562.836853,501.988251
	C560.208435,500.112823 561.272888,497.538361 565.717896,495.532715
z"/>
<path fill="#000000" opacity="1.000000" stroke="none"
	d="
M510.660400,354.643616
	C510.266846,369.497528 500.850830,379.072784 484.898773,380.923737
	C475.859833,381.972534 466.925262,380.932556 458.270844,378.089813
	C450.998566,375.701050 447.111023,369.480103 441.010284,363.865753
	C445.556061,362.950928 446.897400,365.238953 448.229736,366.815735
	C451.347992,370.506134 455.130585,372.303009 459.934723,372.458313
	C467.735992,372.710510 475.489532,373.617584 483.286896,371.769043
	C492.107635,369.677887 498.139465,365.027191 501.122742,356.183167
	C503.055328,350.454041 506.818634,349.948822 510.660400,354.643616
z"/>
<path fill="#000000" opacity="1.000000" stroke="none"
	d="
M597.427490,372.362366
	C599.734009,372.176788 601.741760,371.259674 603.657654,373.203278
	C602.108398,375.727051 599.456055,375.620941 597.175781,375.937134
	C591.261719,376.757233 585.382263,377.727173 579.495483,378.726624
	C565.805054,381.050934 553.082764,377.155609 541.307983,370.452850
	C535.585266,367.195221 532.915649,361.643555 533.711182,354.788879
	C533.959351,352.650452 534.675415,350.835846 536.880005,350.193237
	C539.166443,349.526794 541.220581,350.745300 541.769714,352.646118
	C545.736816,366.379578 556.632263,368.923645 568.762634,370.336609
	C578.168457,371.432190 587.571106,372.088776 597.427490,372.362366
z"/>
<path fill="#000000" opacity="1.000000" stroke="none"
	d="
M279.716309,703.916992
	C244.796707,705.062622 210.350159,706.125916 175.644348,706.157166
	C176.070328,702.840759 177.820633,703.089111 179.171692,702.987732
	C193.933609,701.879639 208.714035,701.611511 223.519867,701.426941
	C244.473602,701.165833 265.413910,699.937012 286.364471,699.262268
	C296.343689,698.940918 306.340088,698.647339 316.316620,698.873596
	C329.623444,699.175232 342.899048,696.819641 356.206970,698.556152
	C357.464172,698.720154 358.861572,698.384583 360.827667,700.665466
	C333.291870,701.768005 306.740936,702.831177 279.716309,703.916992
z"/>
</svg>