<svg version="1.1" id="Layer_1" xmlns="http://www.w3.org/2000/svg" xmlns:xlink="http://www.w3.org/1999/xlink" x="0px" y="0px"
	 width="100%" viewBox="0 0 1024 1024" enable-background="new 0 0 1024 1024" xml:space="preserve">
<path fill="#000000" opacity="1.000000" stroke="none" 
	d="
M143.756317,156.819733 
	C147.328445,157.059555 148.248093,155.032272 148.422638,152.471527 
	C148.664291,148.926117 149.621719,145.615402 151.100601,142.400909 
	C155.823196,132.135864 164.221115,128.463547 174.991547,131.964676 
	C178.471344,133.095840 180.093491,135.517532 180.181305,139.062683 
	C180.222534,140.726364 180.249832,142.403381 180.095047,144.056732 
	C179.349228,152.024368 179.328110,152.090057 187.593674,151.887955 
	C194.920731,151.708817 202.241699,151.248932 209.568954,151.124329 
	C213.407837,151.059021 214.684052,149.420654 214.790878,145.621597 
	C215.016953,137.581299 216.583908,129.987350 224.502747,125.550140 
	C232.569412,121.030098 237.325760,122.918770 239.678101,131.846390 
	C240.777527,136.018906 241.722672,140.264648 242.274872,144.537033 
	C242.627396,147.264450 243.855331,147.689789 246.228607,147.654068 
	C252.880539,147.553940 259.545593,147.472183 266.185852,147.791260 
	C269.808655,147.965347 271.367889,147.155411 272.099976,143.207474 
	C274.159576,132.101044 279.877930,128.408401 290.553162,130.469910 
	C296.901978,131.695938 298.910553,134.127975 299.393768,141.174438 
	C299.907135,148.659988 299.953979,148.139145 307.446198,148.813004 
	C316.115265,149.592712 322.431244,148.395798 325.980713,138.874481 
	C328.427979,132.309845 334.211365,128.193573 342.190308,128.613342 
	C349.241455,128.984314 352.496490,132.378738 351.889587,139.464966 
	C351.275085,146.639755 351.274994,146.678604 358.385376,146.695862 
	C372.551453,146.730255 386.717682,146.721298 400.883850,146.720978 
	C403.889130,146.720917 406.895386,146.721588 409.800140,147.631622 
	C413.203979,148.698029 415.528046,151.080017 415.061035,154.597427 
	C413.246704,168.263031 416.912201,181.411179 418.446960,194.752670 
	C420.307220,210.923874 422.308167,227.079651 424.361542,243.227676 
	C426.092194,256.837982 426.248383,257.015869 438.405182,251.759033 
	C471.262970,237.550674 505.807556,231.670273 541.325928,229.518555 
	C578.922913,227.240921 615.167419,232.942749 649.888489,247.023666 
	C689.789429,263.205231 723.326843,288.610413 751.955566,320.658203 
	C761.077637,330.869720 769.349915,341.717896 777.279968,352.853821 
	C780.722534,357.688171 781.550964,357.823822 786.408264,354.214417 
	C796.862976,346.445618 803.113831,335.377380 809.577576,324.479828 
	C825.436707,297.742493 831.518555,267.820618 837.535400,237.926254 
	C839.310486,229.106567 836.912598,225.193832 828.899170,221.063339 
	C822.472107,217.750549 818.993103,212.356155 817.322388,205.592316 
	C816.344543,201.633591 816.194763,197.542007 820.819885,195.902603 
	C825.656250,194.188324 827.046265,198.301071 828.660950,201.603134 
	C828.947632,202.189468 829.202515,202.791397 829.491577,203.428986 
	C831.226990,203.002380 830.659302,201.591248 830.815979,200.625229 
	C831.889160,194.008255 833.480286,187.535873 836.799316,181.664261 
	C839.160095,177.487930 843.487976,175.826950 847.925476,177.252625 
	C852.414856,178.695023 855.394836,181.383728 855.295532,186.644745 
	C855.107971,196.579391 853.923584,206.254105 848.827515,215.047379 
	C847.702454,216.988770 846.717407,219.050919 847.711365,221.196457 
	C852.922668,232.444855 850.132629,243.719162 848.082520,255.031357 
	C844.363220,275.553314 839.652344,295.816101 830.873474,314.839996 
	C822.801208,332.332642 812.478821,348.437866 799.146362,362.452454 
	C797.113708,364.589142 794.600220,366.524261 791.939270,367.749512 
	C787.574463,369.759277 787.614685,372.373840 789.481995,376.102478 
	C794.786865,386.695404 799.171631,397.639679 802.368530,409.090820 
	C809.750366,435.532227 811.784668,462.379150 809.547119,489.683563 
	C807.854370,510.341064 803.873535,530.575623 797.707275,550.264587 
	C788.255798,580.443542 772.715515,607.573364 753.779297,632.773621 
	C734.718506,658.139526 712.308350,680.183777 686.305847,698.351624 
	C669.240295,710.275391 651.770874,721.706909 631.442444,727.636108 
	C628.787720,728.410400 627.105164,729.623840 627.445435,732.900024 
	C629.866638,756.213928 636.789795,777.816650 651.025574,796.777039 
	C656.390747,803.922791 662.757996,809.927490 670.122375,814.940125 
	C683.396973,823.975647 696.885986,821.081116 710.095032,815.192505 
	C735.728394,803.764954 756.433899,786.528198 770.721008,762.066772 
	C772.911194,758.316833 774.723694,754.417847 775.864380,750.181702 
	C776.904602,746.318787 777.215881,742.789124 774.657837,739.265869 
	C772.674255,736.533875 772.261597,733.261169 774.357910,730.368469 
	C776.469055,727.455444 779.463623,728.821655 782.173889,729.414001 
	C797.791626,732.827454 813.689392,734.398865 829.486206,736.633301 
	C830.310120,736.749878 831.161133,736.726074 831.967285,736.909424 
	C835.987488,737.823792 839.349304,739.644897 839.463135,744.306702 
	C839.572754,748.797729 836.191162,750.607361 832.560791,751.725769 
	C829.001099,752.822266 825.281921,752.428589 821.638550,752.058044 
	C812.362061,751.114624 803.152954,749.757751 794.166931,747.156860 
	C793.564270,746.982361 792.885498,747.070862 791.917664,747.019958 
	C786.964600,770.771606 773.035339,788.983948 756.247070,805.373535 
	C743.667725,817.654114 728.965271,826.785706 712.469727,832.677856 
	C687.945435,841.437988 667.047424,835.208740 649.503357,816.315430 
	C629.887329,795.191162 618.270447,770.152649 612.744751,742.077087 
	C612.426270,740.458984 612.374268,738.767883 610.859985,736.769226 
	C562.367859,748.258057 513.535217,747.065369 464.723999,735.794434 
	C462.956787,740.957397 462.695709,745.839294 462.500427,750.564453 
	C461.482147,775.202454 461.039337,799.868958 465.301056,824.289917 
	C469.340240,847.435974 475.227997,870.159668 483.006226,892.324707 
	C487.052338,903.854492 483.475586,910.185120 471.332489,909.819946 
	C444.518555,909.013611 417.711304,908.283813 390.880188,908.168274 
	C361.210175,908.040466 331.553467,908.770752 301.910187,909.559692 
	C269.094788,910.432983 236.287918,911.223633 203.461609,911.161926 
	C201.629242,911.158508 199.785172,911.221680 197.966827,911.045105 
	C192.490555,910.513489 189.336578,907.644897 189.190323,903.209473 
	C189.039566,898.637817 192.176453,894.664978 197.378738,894.048157 
	C201.807526,893.523071 206.353333,893.888489 210.843994,893.998352 
	C232.488464,894.527832 254.129105,895.278564 275.776306,895.608887 
	C293.271698,895.875916 310.774475,895.647278 328.273987,895.654480 
	C368.429352,895.671021 408.515686,893.306763 448.638580,892.207581 
	C452.791748,892.093811 456.965057,892.334229 461.115479,892.612305 
	C464.961029,892.869934 466.105011,891.634399 465.177307,887.666870 
	C460.744385,868.708801 456.092163,849.784058 452.374756,830.680725 
	C446.645660,801.239807 444.838989,771.574341 449.831940,741.772583 
	C449.941956,741.115784 450.106384,740.468262 450.230774,739.813660 
	C451.733521,731.904114 451.729584,731.913635 444.239624,729.425049 
	C418.225769,720.782227 394.467285,707.924500 372.638397,691.374451 
	C365.341431,685.842041 360.092529,679.019592 357.601959,670.184143 
	C356.976898,667.966736 356.061981,666.408081 353.625031,665.602905 
	C349.355225,664.192200 346.632477,660.543030 343.661407,657.481567 
	C317.581573,630.608032 296.742432,600.301880 284.748901,564.558411 
	C275.613007,537.331238 271.380463,509.280731 272.827850,480.490051 
	C272.869598,479.659882 272.917603,478.814026 273.107819,478.009796 
	C274.990967,470.047668 275.637543,462.429779 269.769806,455.444366 
	C267.329803,452.539520 266.822601,448.409760 266.014954,444.666870 
	C265.440826,442.006073 264.010925,441.205750 261.398315,441.403015 
	C235.847031,443.332123 210.177719,444.085999 184.956558,449.237976 
	C184.141617,449.404449 183.304428,449.472412 182.498566,449.671204 
	C172.796310,452.064728 170.238815,450.270721 167.562225,440.242310 
	C161.909470,419.063141 159.717163,397.398987 157.799057,375.656647 
	C155.355881,347.962189 152.438141,320.309662 149.995422,292.615173 
	C148.343811,273.889954 147.043213,255.136169 144.785339,236.465424 
	C142.584885,218.269470 139.212814,200.262970 136.268845,182.186554 
	C135.413025,176.931778 134.276428,171.671417 134.040665,166.379211 
	C133.704498,158.833847 135.731049,157.068802 143.756317,156.819733 
M308.494019,371.611084 
	C311.672211,366.341949 314.641937,360.933136 318.062653,355.826447 
	C339.204956,324.263550 364.048523,296.276642 396.348206,275.596832 
	C399.072021,273.852905 400.213135,271.834747 399.426941,268.521118 
	C398.419952,264.277008 398.567108,259.931763 399.251007,255.614105 
	C400.214172,249.533310 399.719818,248.814224 393.582703,249.153641 
	C358.516388,251.093079 323.455139,253.124298 288.392365,255.127396 
	C247.187042,257.481415 205.984421,259.884766 164.772583,262.118134 
	C160.928146,262.326477 159.814896,263.616699 160.436890,267.295990 
	C165.130219,295.059021 166.005417,323.186798 168.207535,351.182648 
	C169.396454,366.297394 172.237885,381.167053 173.963791,396.193451 
	C174.238556,398.585541 175.321106,399.689728 177.758698,399.868622 
	C181.737564,400.160645 185.707504,400.625977 189.665848,401.137085 
	C210.746918,403.859222 231.856613,403.040894 252.974304,401.736328 
	C255.958130,401.552032 257.426788,400.511688 255.995880,397.310303 
	C255.105194,395.317566 254.739609,393.188293 254.705063,390.988586 
	C254.505234,378.270142 256.016296,365.716156 259.134460,353.431641 
	C262.427826,340.456787 268.015167,337.575989 280.888214,341.351746 
	C281.207947,341.445526 281.531738,341.526031 281.849274,341.626495 
	C286.142883,342.985046 290.118408,344.667358 290.237122,350.133453 
	C290.371429,356.317749 286.996063,361.526703 281.555695,363.210327 
	C280.015167,363.687103 278.708069,364.040802 278.450348,365.882263 
	C277.195099,374.850739 273.291718,383.067841 271.048828,391.763306 
	C270.128876,395.329865 269.889587,398.302338 274.272522,400.200714 
	C271.443909,402.797516 272.014343,405.635468 272.544342,408.429138 
	C273.318909,412.512238 274.070465,416.605865 275.058929,420.639343 
	C275.479919,422.357178 274.411377,425.613464 277.310577,425.347260 
	C280.770660,425.029541 285.632935,426.348297 287.417786,422.681244 
	C290.255920,416.850128 291.829254,410.403381 294.254089,403.288208 
	C290.003754,403.288208 287.037842,403.398346 284.083252,403.262207 
	C279.758484,403.062866 279.414368,400.051331 279.284180,396.155762 
	C280.808014,397.047668 281.743652,397.711090 282.769165,398.176392 
	C288.620087,400.831055 296.104584,399.472748 297.652496,395.197662 
	C300.553040,387.186951 304.491455,379.663483 307.995483,371.990112 
	C307.995483,371.990112 307.960541,372.026428 308.494019,371.611084 
M477.519806,548.478455 
	C458.582245,545.029053 444.936432,534.940674 437.566528,516.839783 
	C418.812042,470.777893 438.997131,414.946625 483.352234,391.371582 
	C506.265167,379.193146 530.855469,376.644409 556.152954,381.261871 
	C574.857849,384.676086 592.347107,391.090515 607.516113,403.210388 
	C614.070190,408.446991 620.777222,413.521332 627.279236,419.414642 
	C629.122681,414.679504 630.480408,410.372894 632.421875,406.347839 
	C640.397888,389.811768 652.450134,377.609833 670.668518,373.018036 
	C693.408630,367.286591 716.512939,367.357483 739.626465,370.369537 
	C751.719482,371.945435 762.910461,376.609131 774.123474,381.958649 
	C770.093628,372.277954 765.783081,363.316986 760.264587,354.949768 
	C742.778381,328.436707 720.160400,307.002045 694.678711,288.383698 
	C650.814392,256.333984 601.921875,240.341415 547.405029,242.112335 
	C520.880310,242.973969 495.309937,248.796799 470.016052,256.295502 
	C456.698395,260.243683 444.039520,265.718292 431.843933,272.306641 
	C427.902466,274.435913 424.161774,276.904663 425.559082,282.318909 
	C427.960968,291.625885 425.372101,300.080566 421.517792,308.399475 
	C415.529327,321.324738 405.991455,331.630951 396.516510,341.905640 
	C374.470551,365.812500 349.890869,387.140198 326.717194,409.902924 
	C317.796875,418.665039 308.629395,427.268585 302.601379,438.410034 
	C288.425598,464.610840 283.471375,492.723541 287.600433,522.050232 
	C294.083282,568.094604 314.699158,607.343506 346.998749,640.592590 
	C348.549866,642.189331 350.111450,643.833008 352.812469,644.721497 
	C351.236877,633.679810 349.948547,623.091675 352.770752,612.582336 
	C358.394043,591.642273 370.444611,577.194214 392.602234,572.455688 
	C403.753418,570.070923 415.093658,570.160339 426.310303,568.768799 
	C445.716156,566.361389 463.737701,560.149109 480.969086,549.690674 
	C479.649109,549.219360 478.903198,548.953064 477.519806,548.478455 
M633.277344,576.229980 
	C621.598999,564.975830 607.823364,557.533875 592.042358,553.933960 
	C569.592163,548.812744 546.882446,548.213928 524.035583,550.420593 
	C514.645081,551.327637 505.686920,553.462280 497.592377,558.619568 
	C470.197845,576.073364 440.023163,584.180176 407.751587,585.419922 
	C390.150940,586.095947 377.029480,593.870605 369.229950,610.204224 
	C364.541779,620.022095 367.422638,630.584045 376.977448,635.892944 
	C383.963348,639.774475 391.229187,643.233521 397.879761,647.623901 
	C432.146912,670.245117 470.453552,679.480164 510.770660,681.575195 
	C536.098083,682.891357 560.898743,679.237000 584.929504,670.819275 
	C602.530029,664.653992 618.948914,656.388977 633.199768,644.193970 
	C638.824829,639.380432 643.624146,633.840637 646.643921,627.008301 
	C653.910950,610.566101 648.692749,590.297424 633.277344,576.229980 
M756.803772,607.333496 
	C766.417175,593.616882 773.818665,578.756714 779.923096,563.188171 
	C789.364685,539.108948 794.707886,514.071045 796.325195,488.373962 
	C797.504578,469.636139 798.556946,450.778809 793.833191,432.183197 
	C790.199524,417.879059 782.572998,406.732666 769.744263,399.319946 
	C763.835876,395.905975 760.108826,397.345276 757.626526,403.667969 
	C756.114197,407.520142 756.166138,411.505096 756.441895,415.500183 
	C757.464233,430.314362 757.531799,445.108276 756.136414,459.913300 
	C752.453125,498.990753 741.635986,535.650024 719.869934,568.708069 
	C706.692749,588.721436 692.175476,607.562805 672.189270,621.270386 
	C666.596558,625.106201 661.282898,628.342896 660.185974,635.730103 
	C659.915039,637.555176 658.328674,639.217224 657.238647,640.883301 
	C647.695374,655.470215 634.658508,666.467712 619.451721,674.312134 
	C576.302795,696.570496 530.554199,702.942078 482.716705,694.792480 
	C454.975769,690.066528 429.193085,680.108643 404.808716,666.240723 
	C400.002167,663.507202 394.904480,661.223877 389.136078,662.319824 
	C385.145050,663.077942 381.033875,664.371277 379.543549,668.557983 
	C378.050201,672.753113 379.224487,676.812561 382.524628,680.001465 
	C384.556671,681.965027 386.491760,684.142822 388.842438,685.640381 
	C394.737549,689.395874 400.653473,693.202271 406.898041,696.311523 
	C439.900696,712.744446 474.360352,724.641541 511.143311,729.150879 
	C529.024597,731.342957 546.934631,732.648743 564.898010,730.530640 
	C609.917847,725.222168 650.500488,708.551208 686.788818,681.637756 
	C714.301941,661.232361 737.839294,636.883423 756.803772,607.333496 
M638.415466,458.826599 
	C637.133423,494.231232 619.541260,518.735474 586.781494,533.638245 
	C624.852539,545.270813 655.251099,564.002625 668.713684,602.713806 
	C673.462402,600.812683 676.615112,597.900879 679.597717,594.813171 
	C702.768127,570.826660 719.435120,542.688904 730.646118,511.522430 
	C737.699280,491.914734 741.089661,471.280365 741.798645,450.373413 
	C742.216248,438.058258 742.155945,425.720856 738.786255,413.674011 
	C734.705688,399.085266 726.330566,389.207886 710.433472,387.365234 
	C706.966980,386.963409 703.535950,386.144989 700.062866,385.927368 
	C669.598999,384.018524 651.727905,395.524170 643.992615,422.524139 
	C640.655212,434.173462 639.664673,446.012970 638.415466,458.826599 
M355.405823,172.831299 
	C366.877350,172.364746 378.315826,171.026016 389.831512,171.690964 
	C393.798523,171.920044 395.954071,173.632156 396.301239,177.726929 
	C396.708771,182.533340 397.497620,187.307373 397.907623,192.113647 
	C398.756042,202.059296 401.231323,211.821960 401.251160,221.850296 
	C401.254791,223.677933 402.030121,225.932953 399.483337,227.099426 
	C399.074188,226.814392 398.486389,226.629532 398.320465,226.256882 
	C392.457886,213.087906 388.696655,199.271973 386.983826,185.024445 
	C386.500458,181.003723 385.391785,180.299957 381.965668,180.547012 
	C373.331757,181.169540 364.685059,181.614059 356.044037,182.139160 
	C323.312439,184.128189 290.604401,186.813080 257.843048,187.916168 
	C225.538849,189.003860 193.347122,192.106750 161.024658,192.584061 
	C158.740112,192.617783 156.489365,192.767899 155.886841,189.952225 
	C155.322571,187.315277 156.692795,185.388443 158.914993,184.199890 
	C161.309433,182.919250 163.974640,182.711502 166.677032,182.645355 
	C184.328430,182.213394 201.839386,179.925186 219.420837,178.561462 
	C220.213409,178.500000 221.402420,178.334732 221.691833,177.817657 
	C224.224518,173.292862 227.683273,169.235321 229.444077,164.155731 
	C228.437210,163.757690 227.987991,163.426483 227.536942,163.423981 
	C211.542450,163.334961 195.547470,163.314743 179.553436,163.180313 
	C176.558502,163.155151 175.134521,164.753647 173.879562,167.159912 
	C171.114197,172.462311 166.924637,176.466980 161.795776,179.486755 
	C160.468796,180.268051 158.925095,180.837769 157.661575,179.527512 
	C156.363480,178.181396 157.081802,176.646729 157.986740,175.434265 
	C160.240753,172.414276 162.626434,169.492569 165.575119,165.749664 
	C158.304581,166.940659 152.000793,165.599075 145.761536,164.797302 
	C144.890533,167.572296 145.442078,169.620514 145.966232,171.734283 
	C147.164780,176.567657 148.762070,181.391220 149.202545,186.307907 
	C150.958420,205.906845 157.757507,224.650543 158.819565,244.346527 
	C158.950333,246.771423 160.222961,247.837128 162.713348,247.807251 
	C174.208801,247.669357 185.720749,247.975143 197.198547,247.474350 
	C230.309418,246.029663 263.413361,244.395065 296.506195,242.582458 
	C311.135559,241.781143 325.748230,240.698059 340.401154,240.363052 
	C361.046173,239.891052 381.690674,239.396088 402.335632,238.920624 
	C405.570862,238.846100 407.218140,240.320770 407.343872,243.697662 
	C407.498627,247.853455 407.974365,251.996368 408.246216,256.149109 
	C408.409180,258.638580 409.446808,260.644318 411.389160,262.143921 
	C412.529663,263.024445 413.880890,263.080627 415.177765,262.474579 
	C416.707825,261.759583 416.624786,260.444336 416.345276,259.050690 
	C411.292206,233.855682 410.887421,208.066910 406.602020,182.767410 
	C405.281250,174.969955 404.545441,167.073425 403.557709,159.346649 
	C386.545380,159.346649 370.061340,159.338150 353.577301,159.357056 
	C351.437805,159.359497 349.139099,159.059937 347.711395,161.264465 
	C345.405701,164.824768 343.127319,168.402771 340.757202,172.098389 
	C341.574890,172.465302 342.007294,172.824707 342.443207,172.829117 
	C346.439850,172.869339 350.437134,172.847961 355.405823,172.831299 
M354.141296,331.628265 
	C337.256012,351.968018 323.642548,374.231873 313.657227,400.195557 
	C316.258301,398.297272 317.835602,397.156342 319.402344,396.001068 
	C331.493896,387.085358 342.143677,376.525116 353.123688,366.348145 
	C370.954163,349.821686 388.656891,333.165222 403.123627,313.452454 
	C407.802704,307.076599 411.468933,300.211395 413.140289,292.429291 
	C414.311951,286.973907 411.346924,284.392120 406.137756,286.261261 
	C400.112671,288.423218 394.834045,291.908142 389.878723,295.880646 
	C376.841705,306.331970 365.410980,318.400146 354.141296,331.628265 
M184.587204,405.266693 
	C183.930725,405.159851 183.269211,405.077240 182.618515,404.942474 
	C175.555191,403.479218 174.612595,404.193390 175.412552,411.431580 
	C176.143158,418.042145 177.542740,424.584137 178.140244,431.202148 
	C178.533508,435.557922 179.982864,436.806793 184.469223,436.179718 
	C207.370682,432.978821 230.366592,430.542877 253.418839,428.703217 
	C261.133911,428.087494 261.477386,427.802490 260.018066,419.895264 
	C259.625854,417.770203 258.910278,415.602203 259.050232,413.501007 
	C259.450378,407.493256 256.117584,407.117065 251.276352,407.093353 
	C229.331848,406.985931 207.320435,408.914062 184.587204,405.266693 
M283.836212,167.545181 
	C284.241241,165.984543 285.347504,164.531799 284.354645,162.193771 
	C270.114532,162.193771 255.653580,162.191010 241.192627,162.197556 
	C239.524506,162.198303 238.234894,162.892975 237.791504,164.570190 
	C236.554703,169.248703 233.781647,173.169769 230.923141,177.663452 
	C245.388931,178.805145 259.106903,177.009262 272.862183,176.542664 
	C278.854919,176.339371 282.635406,174.423691 283.836212,167.545181 
M323.490540,160.274109 
	C317.680298,160.302307 311.868347,160.250793 306.060242,160.376755 
	C296.561127,160.582718 292.091461,165.376450 292.085358,175.221573 
	C293.316071,175.955902 294.654785,175.616562 295.956879,175.543747 
	C304.731537,175.052979 313.500488,174.422638 322.280701,174.079102 
	C330.367157,173.762711 335.899994,168.978073 337.431885,160.273605 
	C333.078644,160.273605 328.781616,160.273605 323.490540,160.274109 
M740.195496,392.323273 
	C740.698425,392.754944 741.181519,393.212585 741.707336,393.614319 
	C747.097229,397.732056 750.807129,396.466736 752.961487,389.893127 
	C753.519836,388.189117 753.377258,386.846466 751.646973,386.223663 
	C745.448120,383.992462 739.095520,382.811676 731.683533,383.360687 
	C734.212463,387.129700 737.105896,389.337921 740.195496,392.323273 
M373.555084,661.000183 
	C378.339447,659.726196 380.857483,655.211121 386.581726,653.220093 
	C379.907318,649.542664 374.546143,646.588806 369.184937,643.634949 
	C368.824615,643.884155 368.464264,644.133423 368.103943,644.382629 
	C369.737915,649.813782 371.371918,655.244873 373.555084,661.000183 
M282.101166,445.483643 
	C282.717285,443.610321 283.358948,441.739777 282.772034,439.654541 
	C281.156311,438.831055 279.600922,438.436096 278.646210,440.471649 
	C278.075256,441.689026 279.843750,444.520203 282.101166,445.483643 
z"/>
<path fill="#000000" opacity="1.000000" stroke="none" 
	d="
M649.590820,895.544739 
	C670.040283,894.935974 690.020142,894.296753 710.003479,893.793091 
	C738.487671,893.075012 766.976379,892.543640 795.471130,892.837402 
	C802.126343,892.906006 808.778442,893.384155 815.428589,893.737732 
	C816.576782,893.798767 817.750854,894.058960 818.838562,894.439575 
	C821.496704,895.369690 824.638245,896.107300 824.261780,899.860352 
	C823.859802,903.868286 821.129700,905.599121 817.317932,905.540710 
	C808.989929,905.413147 800.655090,905.332031 792.338684,904.918030 
	C771.523010,903.881714 750.686401,904.396912 729.866943,903.889221 
	C694.876404,903.036194 659.877502,903.108154 624.893799,903.557312 
	C590.749207,903.995789 556.590027,904.317444 522.463440,905.849731 
	C519.156067,905.998230 515.806946,905.681396 512.504272,905.327759 
	C509.835236,905.041992 507.517303,903.929749 507.795319,900.661804 
	C508.066589,897.473755 510.160522,895.909485 513.211975,895.959656 
	C516.699158,896.016907 520.179077,896.591370 523.665100,896.623108 
	C565.489990,897.003601 607.307861,896.450012 649.590820,895.544739 
z"/>
<path fill="#000000" opacity="1.000000" stroke="none" 
	d="
M519.027100,207.850357 
	C543.457092,205.363342 567.267822,205.136246 591.117798,212.528732 
	C589.274780,216.305969 587.010620,215.692108 584.945496,215.572525 
	C570.989624,214.764496 557.096191,213.043228 543.066711,213.295746 
	C525.043457,213.620148 507.201050,215.323944 489.569092,219.117188 
	C488.268921,219.396896 486.945557,219.600998 485.622162,219.722168 
	C485.185638,219.762131 484.714966,219.429642 484.161865,219.232513 
	C483.567322,216.018616 486.074890,215.797485 488.025879,215.225113 
	C498.089233,212.272797 508.129303,209.209229 519.027100,207.850357 
z"/>
<path fill="#000000" opacity="1.000000" stroke="none" 
	d="
M706.438049,248.458069 
	C701.370056,252.972290 696.199890,256.717010 690.559814,260.067291 
	C688.136230,256.942627 689.504700,254.230865 690.325195,251.654129 
	C692.798828,243.885590 695.803589,236.329254 699.854187,229.221313 
	C701.173950,226.905502 702.304810,223.917786 705.705383,225.246429 
	C709.282104,226.643875 709.907288,230.033890 708.770996,233.201157 
	C707.610535,236.436035 705.574036,239.356659 703.652527,242.911621 
	C709.654053,239.809387 712.648438,232.171631 720.588257,233.125656 
	C716.985229,239.231873 711.869812,243.751312 706.438049,248.458069 
z"/>
<path fill="#000000" opacity="1.000000" stroke="none" 
	d="
M520.073975,342.031952 
	C538.197021,342.509216 554.058167,337.576080 568.041748,326.664246 
	C570.658020,324.622742 571.840332,322.852997 570.988647,319.194977 
	C569.472290,312.681671 573.436157,306.342926 579.150513,305.175049 
	C583.556519,304.274536 587.861328,304.481659 591.055054,308.329315 
	C594.139832,312.045746 593.602783,316.039551 591.708618,320.054413 
	C585.537415,333.135010 574.303589,340.880859 562.109436,347.269592 
	C538.461487,359.659180 514.257751,357.979980 490.035217,348.972870 
	C484.203339,346.804291 478.879639,343.605713 475.242126,338.316925 
	C472.088409,333.731506 471.135864,328.800171 474.183899,323.781921 
	C476.586273,319.826660 480.334839,318.348328 484.880798,318.839478 
	C491.471619,319.551636 496.048767,325.510010 494.658783,332.521301 
	C493.843475,336.633759 495.615631,337.942352 498.892670,338.897308 
	C505.657806,340.868622 512.563110,341.825867 520.073975,342.031952 
z"/>
<path fill="#000000" opacity="1.000000" stroke="none" 
	d="
M646.109985,326.718323 
	C647.946594,328.058044 648.562866,329.425079 647.524536,331.215118 
	C640.256287,343.744995 632.912842,356.197632 620.193970,364.235260 
	C617.336304,366.041168 614.289490,367.229462 611.025085,367.954895 
	C610.007263,368.181061 608.942261,368.203827 608.308960,367.277039 
	C607.556152,366.175171 607.895813,365.031036 608.743225,364.092712 
	C609.294983,363.481842 609.922119,362.919647 610.586731,362.433075 
	C622.617920,353.625092 631.139771,341.820282 638.833435,329.320282 
	C640.501831,326.609711 642.451904,324.969086 646.109985,326.718323 
z"/>
<path fill="#000000" opacity="1.000000" stroke="none" 
	d="
M327.964905,471.946747 
	C332.330475,473.620789 333.256897,476.453033 330.966278,479.937195 
	C324.195312,490.236115 317.574310,500.567352 314.951294,512.889343 
	C314.605255,514.514832 313.446472,516.062317 311.475403,515.918030 
	C309.523956,515.775146 308.115509,514.450439 307.291748,512.736084 
	C306.388916,510.857269 306.642792,508.836456 307.118347,506.871552 
	C310.161804,494.296326 317.610260,484.029449 324.638062,473.548431 
	C325.299622,472.561798 326.330750,471.964752 327.964905,471.946747 
z"/>
<path fill="#000000" opacity="1.000000" stroke="none" 
	d="
M447.598877,380.889099 
	C444.387451,384.803345 440.247284,383.590057 436.733398,383.021484 
	C429.022339,381.773804 421.680420,379.023224 414.685242,375.507874 
	C412.659546,374.489899 410.164307,373.254578 411.643799,370.247803 
	C412.980621,367.531067 415.307281,366.441162 418.288086,367.598572 
	C419.825348,368.195465 421.335358,368.917206 422.752380,369.759644 
	C429.099518,373.533142 435.763397,376.317261 443.223663,376.961700 
	C445.368958,377.147003 447.660614,377.533142 447.598877,380.889099 
z"/>
<path fill="#000000" opacity="1.000000" stroke="none" 
	d="
M705.983032,316.270203 
	C709.971680,314.844757 712.572388,316.230042 712.554993,320.006775 
	C712.518127,327.979309 712.302673,336.025238 708.959534,343.513885 
	C708.164673,345.294464 707.305603,347.476044 704.761475,347.089386 
	C702.196960,346.699615 701.029968,344.510468 701.166199,342.323730 
	C701.711853,333.564331 702.044556,324.730133 705.983032,316.270203 
z"/>
<path fill="#000000" opacity="1.000000" stroke="none" 
	d="
M378.994080,523.158081 
	C378.532227,527.286377 376.048431,528.591003 372.679962,528.302002 
	C363.866394,527.545776 356.964355,523.342041 351.968384,516.108459 
	C349.751617,512.898804 350.700745,509.904449 353.798462,507.979218 
	C357.055817,505.954773 358.714050,508.589569 359.899597,511.018097 
	C362.467163,516.277771 366.896332,518.741150 372.315094,520.016541 
	C374.644867,520.564880 377.430969,520.153625 378.994080,523.158081 
z"/>
<path fill="#000000" opacity="1.000000" stroke="none" 
	d="
M375.304535,421.591248 
	C378.745483,426.549072 379.985016,432.255554 383.476898,436.790894 
	C384.532318,438.161713 384.241913,439.619934 382.916351,440.781158 
	C381.258759,442.233368 379.495667,442.663910 377.445282,441.496155 
	C373.718689,439.373840 368.067505,428.017944 368.731598,423.677856 
	C369.412079,419.230713 372.199646,420.154388 375.304535,421.591248 
z"/>
<path fill="#000000" opacity="1.000000" stroke="none" 
	d="
M446.068420,327.297882 
	C441.652435,324.672516 441.160400,321.199982 443.417389,317.407928 
	C445.449280,313.993958 448.727051,313.181915 452.456055,314.362823 
	C456.164062,315.537140 457.734436,318.177185 457.187622,321.962372 
	C456.535187,326.478271 451.972229,328.754486 446.068420,327.297882 
z"/>
<path fill="#000000" opacity="1.000000" stroke="none" 
	d="
M463.019440,623.656494 
	C469.429810,625.780396 475.274689,628.174133 480.476685,631.891602 
	C482.521698,633.353027 484.357697,635.065002 485.487488,637.366028 
	C486.686127,639.807190 485.591095,641.569458 483.555115,642.846436 
	C481.697754,644.011292 479.531372,644.414612 478.236206,642.301636 
	C474.330566,635.929932 467.728790,633.939758 461.389343,631.461548 
	C461.080261,631.340698 460.748962,631.277954 460.432556,631.174316 
	C457.570496,630.236511 454.783234,628.948120 455.934753,625.280334 
	C457.091400,621.596130 460.062042,622.895813 463.019440,623.656494 
z"/>
<path fill="#000000" opacity="1.000000" stroke="none" 
	d="
M589.032837,606.811890 
	C588.187195,612.153198 587.533630,617.103455 585.592285,621.751038 
	C584.476501,624.422302 583.319519,627.379211 579.593750,626.232117 
	C576.124207,625.163757 576.679382,622.231445 577.299133,619.562134 
	C578.427002,614.703918 579.499146,609.824768 580.880554,605.036804 
	C581.561340,602.677429 581.521118,598.971130 585.260986,599.427551 
	C589.106995,599.896790 589.335999,603.219482 589.032837,606.811890 
z"/>
<path fill="#000000" opacity="1.000000" stroke="none" 
	d="
M327.679321,300.452057 
	C335.301147,300.306915 340.021820,304.572296 340.602509,311.687561 
	C341.054016,317.220001 337.322205,321.125000 330.310059,322.144806 
	C328.230988,322.447144 326.531860,323.341034 324.833496,324.381348 
	C322.969604,325.523010 321.023102,326.477356 318.836609,326.730713 
	C314.431244,327.241211 312.391174,324.831024 313.516022,320.517883 
	C313.767670,319.552795 314.019226,318.583099 314.354218,317.645325 
	C314.934113,316.022156 314.324341,313.654938 316.652283,313.080170 
	C318.892639,312.527039 319.055328,315.267731 320.600525,316.120026 
	C318.945068,306.728546 319.943237,304.447174 327.679321,300.452057 
z"/>
<path fill="#000000" opacity="1.000000" stroke="none" 
	d="
M248.084656,386.326691 
	C240.516632,387.379028 234.453827,383.997101 232.577408,377.984070 
	C230.614227,371.692993 234.029373,362.306976 239.229370,359.412323 
	C241.707169,358.033020 244.048599,358.395660 246.377533,359.581238 
	C254.143921,363.534821 255.481461,380.770172 248.084656,386.326691 
z"/>
<path fill="#000000" opacity="1.000000" stroke="none" 
	d="
M285.045166,303.021088 
	C293.391968,304.533569 297.054718,313.311584 293.105591,321.784393 
	C292.169128,323.793579 291.318604,325.240784 292.677246,327.636963 
	C294.349152,330.585663 292.056610,331.865540 289.376434,331.994171 
	C286.810852,332.117218 285.348206,329.051727 282.570984,329.404938 
	C280.139435,329.714203 278.551208,332.436035 275.458771,331.740845 
	C275.739532,328.087585 279.489105,327.076050 280.811523,324.398010 
	C274.038086,314.579102 275.698700,305.332611 285.045166,303.021088 
z"/>
<path fill="#000000" opacity="1.000000" stroke="none" 
	d="
M241.832428,262.658569 
	C248.102158,262.099243 250.967987,263.635590 252.171310,269.059906 
	C253.471924,274.922668 256.186615,281.010406 251.843109,286.835083 
	C251.259125,287.618225 250.357315,289.055359 249.948334,288.942078 
	C245.095612,287.597656 241.039200,290.697357 236.214645,291.587463 
	C235.854889,285.291565 243.272827,285.093170 244.357758,280.006256 
	C240.833511,279.038879 236.453705,278.862762 236.036789,274.271667 
	C235.611206,269.585297 237.027222,265.359467 241.832428,262.658569 
z"/>
<path fill="#000000" opacity="1.000000" stroke="none" 
	d="
M192.287262,329.415009 
	C192.215698,331.172058 191.958939,332.525391 191.022125,333.527313 
	C189.519806,335.134003 187.632706,335.690765 185.594376,334.630798 
	C183.580750,333.583679 183.588760,331.748352 184.107513,329.855621 
	C185.376114,325.227081 189.010559,322.037170 191.443695,318.236572 
	C190.771591,315.867615 188.658356,315.847473 187.130692,315.005463 
	C185.488586,314.100372 183.712692,313.078552 184.414688,310.839233 
	C185.039825,308.844971 186.921219,308.259796 188.838654,308.206787 
	C193.425323,308.079926 195.617950,311.074005 197.067276,315.225952 
	C200.142792,314.060089 202.465439,312.439026 204.220917,310.109070 
	C203.665390,307.868622 201.801987,308.415039 200.519669,307.910065 
	C199.290695,307.426117 197.776474,307.136169 198.080017,305.325836 
	C198.344269,303.749878 199.657135,303.203217 201.040665,303.132507 
	C204.727966,302.944153 208.095673,303.794434 210.090759,307.208282 
	C211.974411,310.431458 209.995605,313.054352 208.059021,315.316345 
	C205.766281,317.994324 202.695831,319.756134 199.472183,321.192078 
	C195.951965,322.760101 193.374481,325.193329 192.287262,329.415009 
z"/>
<path fill="#000000" opacity="1.000000" stroke="none" 
	d="
M242.146149,331.291809 
	C236.144043,333.994141 232.921799,332.680115 231.438507,326.894775 
	C230.139755,321.829193 230.289658,316.652832 232.107101,311.721161 
	C234.066071,306.405487 238.276688,305.482941 242.685516,309.153809 
	C248.609192,314.085968 248.507278,323.535156 242.146149,331.291809 
z"/>
<path fill="#000000" opacity="1.000000" stroke="none" 
	d="
M308.010254,371.969666 
	C305.340149,374.975372 301.801422,376.406647 297.940582,376.890839 
	C291.055054,377.754395 287.216492,372.778809 289.557861,366.279999 
	C291.002655,362.269836 293.913422,359.639404 297.596222,357.815216 
	C300.673035,356.291168 303.554626,357.088287 305.825714,359.421051 
	C309.097443,362.781616 310.450195,366.699066 308.091614,371.640839 
	C307.960541,372.026428 307.995483,371.990112 308.010254,371.969666 
M297.788910,365.415924 
	C296.792175,366.317810 295.682892,367.255585 296.869995,368.689301 
	C297.644501,369.624725 298.692810,369.288300 299.542969,368.729492 
	C300.646423,368.004211 301.862213,367.118164 301.235168,365.586365 
	C300.645935,364.146881 299.426239,364.520111 297.788910,365.415924 
z"/>
<path fill="#000000" opacity="1.000000" stroke="none" 
	d="
M214.798355,383.228363 
	C214.261536,384.888092 213.913177,386.210022 212.145721,386.748260 
	C209.264542,385.346558 208.994492,382.471649 208.853821,379.688843 
	C208.609665,374.858612 208.824005,370.038818 209.608414,365.243500 
	C210.099274,362.242676 209.827255,359.670990 205.605072,360.654510 
	C203.942886,361.041718 202.492706,360.725952 202.131500,358.844208 
	C201.748169,356.847198 203.010376,355.654785 204.757751,355.189209 
	C206.841232,354.634064 208.984985,354.202789 211.129349,353.998932 
	C216.057556,353.530457 216.774384,354.518738 216.369308,359.409851 
	C215.723755,367.204254 216.062653,375.064392 214.798355,383.228363 
z"/>
<path fill="#000000" opacity="1.000000" stroke="none" 
	d="
M293.648621,271.046692 
	C291.461609,272.999847 290.826172,276.549042 287.113342,275.975433 
	C287.227020,266.400452 291.292145,262.156097 298.391144,264.145630 
	C299.470856,264.448242 300.884003,264.910858 301.373871,265.748993 
	C304.529907,271.148651 303.627197,277.056305 302.551208,282.698181 
	C301.758118,286.856781 297.867645,287.958740 294.067108,288.441803 
	C292.485992,288.642731 290.477997,289.534363 289.637695,287.502350 
	C288.784424,285.438995 290.800964,284.705048 292.152069,283.814545 
	C296.160736,281.172455 298.152924,275.532043 296.559540,271.352509 
	C295.937256,269.720245 294.983154,269.939026 293.648621,271.046692 
z"/>
<path fill="#000000" opacity="1.000000" stroke="none" 
	d="
M200.206085,371.961090 
	C199.986328,376.680206 198.490799,380.483612 195.572861,383.625580 
	C193.966766,385.355042 191.862015,387.038055 189.497467,385.571075 
	C186.866837,383.939026 188.218140,381.500488 189.235428,379.400299 
	C189.811172,378.211700 190.460770,377.045532 191.199478,375.951965 
	C192.661514,373.787628 192.570557,372.138702 190.188309,370.577606 
	C186.814758,368.367004 186.764343,365.197327 189.279633,362.548584 
	C191.881287,359.808899 194.852585,361.236115 197.172684,363.399078 
	C199.463486,365.534729 200.250839,368.428467 200.206085,371.961090 
z"/>
<path fill="#000000" opacity="1.000000" stroke="none" 
	d="
M204.548752,321.622375 
	C209.943100,321.852966 213.306854,324.590057 213.728760,329.042603 
	C214.085342,332.805511 212.084717,335.386810 208.765839,336.798798 
	C205.469467,338.201233 200.083954,335.964172 197.916306,332.664856 
	C195.722992,329.326477 198.089905,327.071808 199.742218,324.685516 
	C200.805527,323.149872 202.414673,322.260559 204.548752,321.622375 
z"/>
<path fill="#000000" opacity="1.000000" stroke="none" 
	d="
M352.303223,273.210480 
	C351.282318,274.754028 350.511078,276.039673 349.571564,277.187592 
	C348.415985,278.599457 347.112885,280.265533 345.027039,279.048523 
	C343.111176,277.930725 343.584320,275.880035 343.842773,274.097565 
	C344.248230,271.301392 346.994507,269.424652 347.020386,266.153015 
	C346.333832,265.849121 345.612640,265.535004 344.895721,265.211517 
	C343.074036,264.389587 340.790558,263.584564 341.663635,261.070374 
	C342.388123,258.984009 344.471649,259.848633 345.997253,260.287689 
	C348.378571,260.973022 350.131531,259.798553 351.997131,258.683807 
	C354.138397,257.404388 356.539673,256.928192 358.381348,258.899078 
	C360.224792,260.871796 358.130554,262.525879 357.246094,264.181824 
	C355.686920,267.101135 354.070679,269.989929 352.303223,273.210480 
z"/>
<path fill="#000000" opacity="1.000000" stroke="none" 
	d="
M197.815338,291.733765 
	C196.226120,287.933563 197.474030,284.494568 197.637848,281.057251 
	C197.750778,278.687775 198.049973,276.523865 194.465622,276.176392 
	C190.974213,275.837891 191.387314,273.629059 193.513535,271.837646 
	C195.755325,269.948883 198.442749,269.103912 201.398773,270.177002 
	C204.361176,271.252380 205.127029,273.697632 205.232346,276.516144 
	C205.469131,282.851990 204.012253,288.827454 202.024780,294.522675 
	C199.561783,294.677032 198.803757,293.336060 197.815338,291.733765 
z"/>
<path fill="#000000" opacity="1.000000" stroke="none" 
	d="
M349.910339,286.923767 
	C356.194275,286.943512 362.028473,284.752350 369.278595,287.058746 
	C364.176270,289.995972 359.613586,289.529053 355.449677,290.149231 
	C346.925842,291.418732 338.313812,292.097992 329.736633,293.006531 
	C327.221741,293.272919 324.751648,293.387512 323.246155,289.223877 
	C332.137634,287.368622 340.855499,287.679291 349.910339,286.923767 
z"/>
<path fill="#000000" opacity="1.000000" stroke="none" 
	d="
M256.405640,307.036865 
	C260.669342,313.818481 259.177399,321.050354 259.067902,328.114838 
	C259.051880,329.146790 258.321625,329.959320 257.221008,330.196686 
	C256.247528,330.406586 255.506958,329.842163 255.265152,329.039093 
	C253.122025,321.921753 253.140121,314.684418 254.325653,307.421875 
	C254.369644,307.152374 255.458847,307.053467 256.405640,307.036865 
z"/>
<path fill="#000000" opacity="1.000000" stroke="none" 
	d="
M226.803589,299.489990 
	C227.095947,297.158020 228.832993,297.222260 230.227554,297.046112 
	C239.665970,295.853973 249.156708,295.584625 258.659210,295.647614 
	C259.040314,295.650146 259.418610,296.074615 260.187653,296.536285 
	C254.695114,299.057556 249.144547,298.273315 243.825150,298.859406 
	C238.889664,299.403198 233.823608,298.772705 229.041382,300.669098 
	C228.180328,301.010529 227.435745,300.529724 226.803589,299.489990 
z"/>
<path fill="#000000" opacity="1.000000" stroke="none" 
	d="
M280.845245,296.630188 
	C278.892639,296.771454 277.196655,297.912476 275.932800,296.053131 
	C277.756439,293.735229 301.152557,291.809296 307.596191,293.412018 
	C307.645477,293.850616 307.694794,294.289185 307.744080,294.727783 
	C298.917206,295.340576 290.090302,295.953339 280.845245,296.630188 
z"/>
<path fill="#000000" opacity="1.000000" stroke="none" 
	d="
M254.508469,351.161682 
	C247.729736,350.874756 241.385651,352.770203 235.281860,352.105957 
	C234.822052,350.534973 234.995163,349.754272 235.670227,349.588470 
	C242.027222,348.027344 248.554901,348.452606 254.993958,348.406006 
	C257.602783,348.387115 257.494293,350.191864 254.508469,351.161682 
z"/>
<path fill="#000000" opacity="1.000000" stroke="none" 
	d="
M313.379059,345.833282 
	C308.652435,346.856903 304.289520,347.758270 299.924133,348.647644 
	C298.782013,348.880310 297.531250,349.211304 297.056641,347.661682 
	C296.636108,346.288483 297.417969,345.241028 298.621735,345.016022 
	C304.378082,343.940277 310.150757,342.808289 316.186279,343.479919 
	C316.137848,345.611053 314.619141,345.246063 313.379059,345.833282 
z"/>
<path fill="#000000" opacity="1.000000" stroke="none" 
	d="
M183.088196,300.083252 
	C180.731140,300.078094 178.640930,300.327209 177.952530,297.281860 
	C182.008438,296.221710 185.609009,296.352783 189.321533,298.464447 
	C187.514343,300.908752 185.340652,299.767242 183.088196,300.083252 
z"/>
<path fill="#000000" opacity="1.000000" stroke="none" 
	d="
M190.798080,351.218872 
	C186.871445,353.158478 183.000244,352.388580 179.120865,351.086121 
	C182.975876,349.477753 186.836227,348.867279 190.798080,351.218872 
z"/>
<path fill="#000000" opacity="1.000000" stroke="none" 
	d="
M655.677368,523.009033 
	C653.685059,519.368225 655.579041,517.515381 658.314392,516.026306 
	C668.686218,510.380005 674.758911,500.881073 680.551758,491.146423 
	C681.355774,489.795166 681.230225,488.404327 680.572876,486.878296 
	C679.028687,483.294159 681.066711,481.091064 684.093079,479.935669 
	C687.034851,478.812531 690.455017,481.335602 690.852966,484.789764 
	C691.036560,486.383026 690.778198,488.128296 690.308044,489.679779 
	C686.465698,502.358826 679.253357,512.648132 668.112793,519.946716 
	C664.513123,522.305054 660.646973,524.391907 655.677368,523.009033 
z"/>
<path fill="#000000" opacity="1.000000" stroke="none" 
	d="
M729.877441,453.068298 
	C728.539856,458.763550 726.146667,463.380920 720.866638,465.745361 
	C718.560303,466.778168 715.872192,467.449951 714.313904,464.589844 
	C712.884033,461.965515 713.898682,459.835663 716.512573,458.437317 
	C718.997620,457.107971 720.154480,454.723145 721.340027,452.337494 
	C722.197327,450.612457 722.732971,448.282532 725.186401,448.322144 
	C727.856995,448.365234 729.208069,450.264771 729.877441,453.068298 
z"/>
<path fill="#000000" opacity="1.000000" stroke="none" 
	d="
M254.615601,228.757874 
	C228.969650,231.306442 203.925659,234.861542 179.045319,239.561218 
	C178.554031,239.654007 178.066711,239.805634 177.571884,239.835205 
	C175.666122,239.949173 173.112915,240.884933 172.649490,238.094360 
	C172.229202,235.563507 174.819946,235.532715 176.502899,235.167160 
	C186.592178,232.975739 196.666687,230.673752 207.037186,230.186798 
	C224.040588,229.388412 240.740189,225.947403 257.648804,224.339340 
	C272.902924,222.888596 288.163605,221.430084 303.521027,221.844727 
	C305.116577,221.887802 306.847229,221.589523 308.795044,223.700333 
	C290.587708,226.978317 272.677307,226.420074 254.615601,228.757874 
z"/>
<path fill="#000000" opacity="1.000000" stroke="none" 
	d="
M378.992767,208.218750 
	C379.249237,215.152710 379.494751,221.613022 379.755646,228.072708 
	C379.828064,229.865784 380.428467,232.252060 378.162720,232.718323 
	C375.504578,233.265350 375.181763,230.567413 374.669830,228.762955 
	C372.939575,222.664215 372.661102,216.334167 372.036469,210.072128 
	C371.625946,205.956375 371.788391,201.791260 370.528198,197.765991 
	C369.953308,195.929596 369.957520,193.931396 372.150635,193.160263 
	C374.340118,192.390427 375.516632,194.074112 376.406860,195.707535 
	C378.447144,199.451111 378.893463,203.567413 378.992767,208.218750 
z"/>
<path fill="#000000" opacity="1.000000" stroke="none" 
	d="
M357.396423,219.629852 
	C357.660065,224.595245 358.912994,229.186310 356.627655,233.495636 
	C353.505920,233.397339 353.046478,231.287094 352.830322,229.359085 
	C351.686035,219.153229 350.626892,208.936951 349.665100,198.712357 
	C349.505981,197.021194 349.074554,194.611572 351.521729,194.189117 
	C354.038025,193.754715 354.848053,195.995361 355.387573,197.921066 
	C357.335236,204.872879 357.082062,212.047653 357.396423,219.629852 
z"/>
<path fill="#000000" opacity="1.000000" stroke="none" 
	d="
M329.842041,222.917725 
	C328.823090,215.793472 326.851593,209.230286 326.839569,202.399185 
	C326.835938,200.341095 326.447571,197.436386 329.301270,197.212082 
	C332.052094,196.995880 332.338501,199.844070 332.715576,201.910141 
	C334.262939,210.389038 335.095856,218.947693 335.215057,227.567703 
	C335.239929,229.367813 335.319611,231.264648 333.232819,232.596588 
	C330.035858,230.274429 331.163116,226.338501 329.842041,222.917725 
z"/>
</svg>