<?xml version="1.0" encoding="utf-8"?>
<!-- Generator: Adobe Illustrator 27.4.0, SVG Export Plug-In . SVG Version: 6.00 Build 0)  -->
<svg version="1.1" id="Layer_1" xmlns="http://www.w3.org/2000/svg" xmlns:xlink="http://www.w3.org/1999/xlink" x="0px" y="0px"
	 viewBox="0 0 1004 1024" style="enable-background:new 0 0 1004 1024;" xml:space="preserve">
<path d="M735.2,84.9c42.5,23,79.4,52.5,113,86c32.2,32.2,57,70,78.9,109.8c28.1,51.1,45.4,105.9,54.1,163.2
	c6.3,41.4,5.7,83.3,1,124.9c-5.2,46.3-14.9,91.7-32.9,135.1c-22.4,54.1-54.6,101.7-94,144.9C796,914,722.7,956.1,639.5,982.3
	c-34,10.8-69,14.8-104.3,18.4c-62.8,6.5-123.9-1.9-183.9-20c-42.5-12.9-81.9-32.5-119.5-56.2c-54.3-34.3-96.8-79.7-132.7-132.4
	C68.7,747.5,46,699.6,32,647.6c-7-26-11.1-52.7-13.5-79.7c-2.9-33.5-3.3-67-0.5-100.6C21.9,423,33,380.5,48.2,338.9
	c17.1-46.8,40.6-90,70.6-129.7c45.2-59.8,103-104,169.7-137.6c34.1-17.3,69.8-30,107-38.9C448.8,20,502.9,18.4,557,24.6
	C620.5,31.9,679.2,53.7,735.2,84.9 M598.9,581.4c21.7-39.4,22.9-79.7,7.8-121.6c-19.4-54-77.8-80.5-123.3-71.1
	C412.6,403.3,370.1,468.2,385,539c9.5,44.9,35.7,77.8,79.7,94.3c16.2,6.2,33.2,10,50.5,6.7C551.3,633.3,579.4,614.4,598.9,581.4
	 M88.4,445.2c-7.9-13.8-11.7-29-17.1-46.3c-2.2,7.3-3.8,12.4-5.1,17.3c-5.7,21.9-10.6,44.1-6.2,66.5c8.9,45.1,32.2,80.5,73.5,102.5
	c31.3,16.7,64.3,22.7,99.7,18.1c42.1-5.4,79.4-23.3,116-43c11.3-6,11.4-7.6,5.6-19.5c-1.7,0.3-3.5,0.6-5.2,1
	c-46.8,11.1-93.2,9.7-139.5-3.3C157.2,523.8,116.6,493.8,88.4,445.2 M326.7,701.4c-25.4,21.3-54,37.5-85.4,47.6
	c-40.9,13.2-81.6,13.6-120.9-6.2c-1.4-0.8-3-2.4-5.6-0.5c12.2,21.7,25.1,43.3,44.4,59.2c42.2,34.3,109.3,33.2,150.9-1.1
	c34.1-28.2,58.2-63.6,75.1-104.6c7-17.1,11.6-35.1,17.8-52.5c2.7-7.8,0.5-12.2-5.9-17.5C377,653.9,354.5,679.5,326.7,701.4
	 M62.2,579.2c-2.2,1-2.2,1-2.2,2.9c1.9,31.3,10.8,60.6,22.5,89.4c1.3,3.2,3.5,5.7,6.7,7.6c4.9,3,9.8,6.3,14.4,9.7
	c47.9,34,98.4,37,151.4,12.7c31.9-14.6,57.5-37.1,81.1-62.4c11.7-12.5,22.9-25.6,34.8-37.9c4.6-4.8,4-7.6-0.6-11.3
	c-19.5,11.9-39.4,22.4-60,31.3c-44,19-89,29.7-137.3,20.6C129.1,633.8,92.2,613.8,62.2,579.2 M317.4,511.1c8.9-1,17.8-2.4,26.8-2.9
	c6.5-0.3,7.6-3.5,7.6-9.2c0-6.5-4.4-7-8.7-7.9c-45.2-11.1-87.1-29.7-124.3-57.8c-52.4-39.7-82.2-92.7-88.2-158.5
	c-0.2-1.9,0.3-4.3-2.7-5.6c-2.7,4.4-5.7,8.9-8.3,13.5c-14.6,26-22.7,53.5-17.8,83.6c10.5,65.5,47.9,109.3,109.7,131.9
	C245,510.6,280.1,514.7,317.4,511.1 M340.7,453.1c6.3,1.3,11.9,5.6,18.4,4.9c5.1-10.2,4-17-5.7-24.1c-29.7-22.2-57.3-46.8-79.2-77.1
	C232.6,299,213.6,236,229.6,164.9c0.6-2.7,2.4-5.6-0.8-8.1c-4.4,0.8-7.5,4-10.6,6.3c-23.8,18.4-43,40.2-47.3,71.4
	c-7.5,54.8,8.3,102.5,45.2,143.2C249.9,414.6,293.4,436,340.7,453.1 M596.8,666.9c-3.8-7.1-6.2-15.1-12.2-21.3
	c-2.2,1.7-4.6,4.4-5.9,4.6c-8.6,2.9-28.7,4.6-26.5,11.3c7.6,23.3,19,76.3,22.5,100.8c2.7,19.7,0.2,39.2-1.6,52.1
	c-2.7,14.4-9.5,35.7-13.3,45.5c-12.2,31.1-28.4,59.7-54.3,81.6c-6.7,5.7-13.5,11.3-21.6,18.1c14.3,1.6,26.8,1.3,39.4-1
	c34.6-6.2,65.2-19.5,86.5-49.2c30.8-42.9,35.9-90.3,24.8-140.5C626.7,733.4,614.6,699.8,596.8,666.9 M846,439.7
	c37.6,11.9,73.3,26.7,98.7,62.2c0-10.3,0.2-17.6,0-24.9c-0.5-27.8-8.3-51.9-30.6-70.9c-37-31.4-79.8-38.1-125.7-33.2
	c-46.7,4.9-88.2,24.9-128.7,47c-8.6,4.6-16.3,10.3-24.4,15.6c4.1,9,4.1,9,12.5,6.8C713.3,425.7,778.9,423,846,439.7 M307.7,109.4
	c-6.2,3.3-11.3,8.1-15.4,13.5c-20.5,27.1-30.8,57.6-30,91.6c0.8,40.2,15.6,76,36.5,109.2c18.3,28.9,43,52.1,69.8,73
	c6,4.6,12.2,9,18.6,13.6c2.2-2.7,4.3-4.8,6-7c1.9-2.5,5.4-3.3,6.8-6.8c-72.7-89.8-101.9-188.4-60.3-301.9
	C328.9,98.6,318.6,103,307.7,109.4 M638,576.8c2.5,5.7,7.6,9.4,12.1,13.3c31.7,26.8,59.2,57.3,81.3,92.7
	c35.1,56.3,54.8,116,38.6,183.1c-0.3,1.4-1,3.2,1.6,4.4c14.6-11.1,28.9-22.9,41.1-37.3c13.3-15.7,18.3-33.5,18.1-53.5
	c-0.3-39.5-14.3-73.8-39.2-103.8c-40.5-48.7-94.6-78.4-149.2-107.6C639.7,570.3,638.7,573,638,576.8 M846.7,480.6
	c-11.1-3.2-22.4-6.2-33.8-8.1c-54-8.9-107.3-6.3-160.3,7c-2.7,0.6-6.3,0.8-6,4.9c0.5,3.7,4,2.9,6.3,3c20.3,0.6,40.5,3.2,60.5,7.6
	c49.2,11.1,97.1,25.4,139.2,54.6c32.2,22.4,58.9,49.7,72.8,87.4c0.5,1.3,0.5,3.3,3.2,3.5c2.5-9,5.7-18.1,7.3-27.3
	c2.7-15.7,6.7-31.6,1.3-47.6c-3.7-10.8-8.7-20.9-15.2-30.3C903.6,508.5,878.2,491.2,846.7,480.6 M651.4,642.5
	c-8.6-8.9-17.1-17.9-25.9-26.7c-2.1-2.1-4.9-6.2-8.4-2.2c-3,3.5-7.5,6.3-3,12.7c7.3,10.3,14.1,21.1,20,32.2
	c22.2,42.1,38.9,85.9,44,133.8c4.4,41.9-1.6,81.6-22.5,118.6c-4.9,8.6-10,17-15.9,26.8c14.3-4,26.5-8.6,38.6-14
	c22.1-9.7,36.3-27,45.9-48.2c17-38.1,13.6-76.8,1-115.1C710.2,715.5,681.8,679.1,651.4,642.5 M834.3,585.2
	c-13.5-8.7-27.3-17.1-42.1-23.6c-43.8-19.4-89.8-30.8-137-37.9c-3.3-0.5-7.1-2.1-8.7,2.5c-1.4,4.6,2.4,5.9,5.6,7.3
	c21.6,9.4,42.5,19.8,63.3,31.1c43.3,23.6,81.6,53,111.4,92.4c20.8,27.3,37,57.3,42.2,91.9c0.6,4.3-0.3,9,2.7,12.9
	c0.6-0.2,1.4-0.2,1.6-0.6c2.4-3.5,4.9-6.8,7.1-10.5c16.8-26,24.9-53.6,14.8-84.3C884.1,632.8,864.6,605.7,834.3,585.2 M522.4,846.6
	c6.2-14.9,12.7-43.5,12.7-43.5s9.7-36.7,4.4-75.7c-4.8-23.6-6.3-32.9-11.4-42.5c-10.5-20.3-8.9-14.1-23-13.3
	c-4,0.3-11.4,0.5-13.6,0.2c-2.9-0.3-4.6-1.6-7.3,0.5c2.2,12.7-1.6,25.4-3.3,38.1c-6.2,43.6-16.8,86-36.7,125.7
	c-15.6,31.1-35.7,58.6-65.1,78.4c-11.1,7.5-23.3,12.7-36,18.4c14.4,6.2,28.6,10.6,43,14c16.7,3.8,33.2,3.8,49-3.3
	C477.7,924,506.5,891.8,522.4,846.6 M393.9,843.1c9-13.3,16.7-27.6,22.9-42.5c16.3-39.2,27.1-79.8,31.7-122.2
	c1.4-13.3,1.3-14.1-11.6-19.8c-3.3,10.5-6.8,20.9-10,31.4c-15.4,49.7-40.9,93.3-78.9,129c-33.8,31.9-73.2,50.5-121.1,46.7
	c-1.3-0.2-2.7-0.3-3.3,2.2c15.7,14.3,33.5,25.9,53.8,33.3c6.7,2.4,13.6,3.5,21.1,2.5C339.3,898.6,370.1,877.2,393.9,843.1
	 M802.8,237.6c18.4-2.9,36.3,1.6,55.7,5.1c-13.6-18.4-27-34.6-43.5-48.2c-10.5-8.6-22.2-12.7-35.7-12.9c-32.5,0-60.3,12.5-84.3,33.5
	c-49.4,43-78.2,99.4-101.9,159c4.4-7.5,8.4-15.2,14.4-21.6c29.2-30.3,59.2-59.7,95.5-81.7C733.5,252.5,766,241.1,802.8,237.6
	 M685.6,363.3c36-18.4,74.1-29,114.4-32.1c38.9-2.9,75.5,4.8,109.5,24.4c1.9,1.1,3.5,3.3,6.5,2.4c-5.2-18.9-12.9-36.5-24-52.4
	c-2.9-4.1-5.9-8.1-10.2-11c-20.9-14-44.3-19.7-69.2-18.9c-24.8,0.8-47.8,8.7-69.8,19c-36.3,17.1-66.7,42.5-94.9,70.8
	c-11.4,11.4-22.1,23.8-30.9,37.5C638.7,388.7,660.3,374.1,685.6,363.3 M447,72.7c1.1-1.9,3.8-3.2,2.7-7c-15.9-1.1-30.6,3.3-44,11.9
	c-14.6,9.4-22.5,24.3-29.7,39.4c-18.1,38.2-20.2,77.9-12.1,119.2c9.8,49.5,30,94,60.5,133.9c3,4.1,5.7,7,11.6,3.2
	c6.2-4,2.9-7.6,0.8-11.3c-7.8-14-12.5-29-17.3-44.3c-13.5-43.3-21.6-87.3-16-132.7C408.8,144.5,418.1,105.4,447,72.7 M441,215.2
	c0.6,12.4,0.6,24.9,2.2,37.1c4.6,35.2,15.4,69,27.8,102.2c3,8.1,4.4,8.6,13,4.8c-4-24-6-48.1-7.8-72.2
	c-2.7-37.1-0.8-73.5,10.6-108.9c12.2-37.9,30.3-72.2,63-96.8c6.2-4.6,12.9-8.7,19.2-13c-10.5-2.9-20.5-4.4-30.8-3.8
	c-30.9,2.2-52.2,19.5-68.6,44.3C448.8,140.8,440.4,176,441,215.2 M658.6,92.2c-3.5-2.7-7.6-3.7-11.6-4.8c-4.8-1.3-9.5-5.4-14.3-2.5
	c-7.3,4.3-15.2,5.9-23,8.4c-20.2,6.8-36.8,18.6-50.5,34.4c-26.5,30.9-40.6,67-44.1,107.4c-3.3,39.2-1.4,78.1,3.8,117
	c0.3,1.7,0.3,3.8,3.5,4.4c1.6-9.8,3.8-19.5,4.9-29.4c4.8-41.4,14-81.4,31.7-119.7c16.7-36,38.2-68.1,68.2-94.3
	C637,105.3,648.6,100.2,658.6,92.2 M723.5,122.9c-5.1-2.1-10.3-4.1-15.4-6.2c-1.9-0.8-3.8-1.7-6-0.6c-9.8,5.1-20.6,8.3-30.2,14.1
	c-35.6,22.2-58.6,55.1-76.8,91.7c-16,31.9-24.9,66.2-30.3,101.3c-0.8,4.9-2.1,9.8-2.9,14.8c-0.8,4.8-1.3,9.7-1.9,14.4
	c19.7-50,44.1-96.5,79.7-137.3c29.8-34.3,64.8-59.4,109.3-70.5c1.9-0.5,4.3-0.2,5.7-3.3C745.4,134.6,735.2,128.6,723.5,122.9"/>
</svg>
